<svg xmlns="http://www.w3.org/2000/svg" viewBox="0 0 2688 1125" width="2688" height="1125"><path fill="#9cce31" d="M2497.813 1.5c7.27 5.7 9.49 10.6 11.19 19.5l3 4c.68 3.75.68 3.75 1 7 1.52-.02 3.04-.05 4.6-.07 133.49-1.38 133.49-1.38 170.4 17.07v1076H.003V94c9.46-3.44 18.72-6.26 28.43-8.81l2.5-.66c56.99-14.93 116.84-22.67 175.76-22.7 1.92 0 3.85 0 5.77-.01 4.01 0 8.02-.01 12.02-.01 4.03 0 8.05 0 12.08-.02 24.46-.08 48.73.42 73.15 2.03 3.77.21 7.52.26 11.29.18-2.2-4.54-4.1-5.84-8.81-7.5-6.68-2.6-10.67-5.09-14.57-11.25-1.82-4.78-2.07-8.17-1.62-13.25l2-4c.18-1.36.37-2.72.56-4.12 1.5-7.1 6.75-12.44 12.68-16.36 7.45-3.66 14.63-4.5 22.45-2.02 6.49 2.66 10.46 6.45 14.12 12.5 1.19 3 1.19 3 2.19 6.56 1 3.44 1 3.44 2.62 5.82 2.1 4.01 1.8 7.16 1.38 11.62-3.65 8.42-9.8 12.37-18 16h-3c-1.08 2.65-2.1 5.28-3 8 .8-.02 1.6-.05 2.43-.07 9.98-.16 19.68.81 29.57 2.07-.19-1.25-.38-2.5-.58-3.78-.49-4.9.34-6.9 2.58-11.22.57-1.38 1.15-2.76 1.75-4.19 2.64-4.47 4.45-5.89 9.25-7.81 4.1-.43 6.88-.47 10.69 1.12 4.88 3.97 7.6 7.85 9.31 13.88l2 4c-.27 5.08-.87 6.82-4 11 .97.12 1.94.24 2.94.36 102.6 12.74 203.86 33.61 338.06 73.64 1.35.42 2.7.83 4.1 1.26 49.13 15.23 97.45 33.49 145.36 52.19 1.08.42 2.17.84 3.28 1.27 2.25.88 4.49 1.81 6.71 2.76 1.12.46 2.24.93 3.4 1.41.99.43 1.98.86 3 1.3 7.13 1.84 14.27-.89 21.16-2.85 1.98-.55 3.95-1.1 5.93-1.64 1.02-.29 2.05-.58 3.11-.87 21.51-5.99 43.05-11.44 64.95-15.83.41-.08.41-.08 2.48-.5 41.79-8.36 83.98-13.8 126.52-16.5.78-.05.78-.05 4.73-.31 61.59-3.92 123.52-2.22 184.98 2.95 6.57.55 13.15 1.05 19.72 1.55l6.25.48c1.43.11 2.85.22 4.32.33l-1-3c-1.22-.41-2.44-.82-3.69-1.25-5.2-2.11-7.28-4.05-10.31-8.75-.85-6.62.23-11.95 3-18 4.82-5.48 9.51-8.66 16.81-9.38 5.88.53 10.13 2.44 14.44 6.5 4.44 7.31 6.81 13.24 4.75 21.88-2.78 5-6.86 6.76-12 9h-2l-1 5c.83.05 1.66.1 2.52.15 9.02.57 17.91 1.62 26.85 2.91.66.1.66.1 4 .57 3.21.45 6.42.91 9.63 1.37v-2a1706 1706 0 0 0-3.81-1.75c-4.19-2.25-4.19-2.25-7.19-6.25-1.12-5.89 1.84-11.17 5-16 4.46-3.35 6.51-3.83 12-4 4.68 1.68 5.93 2.92 9 7 .69 1.66 1.36 3.32 2 5l1 1c.57 4.1.2 5.69-2.13 9.19-2.85 2.79-5.35 4.05-8.87 5.81l-1 4c.9.04 1.8.07 2.72.11 11.87.61 23.52 2.17 35.28 3.89-3-3-3-3-6.19-5.31-2.81-2.69-2.81-2.69-3.44-5.5 1.09-5.56 2.86-9.85 7.44-13.31 4.11-1.13 6.28-.5 10.19 1.12 3.28 3.28 4.52 5.63 6 10 0 3.19 0 3.19-1 6-2.63 2.56-4.52 3.84-8 5v4c.72.1 1.43.2 2.18.31 9.98 1.47 19.86 3.39 29.75 5.38.88.17 1.76.35 2.66.53 16.22 3.26 32.35 6.82 48.41 10.78 1.19.29 2.39.59 3.62.89 37.59 9.27 75.46 19.95 111.78 33.45.91.34 1.83.68 2.77 1.03 2.27.85 4.52 1.73 6.78 2.62 8.63 2.16 17.07-.59 25.38-3.05 1.06-.31 2.12-.62 3.21-.93 3.43-1 6.85-2 10.27-3.01 2.38-.7 4.77-1.39 7.15-2.09 16.41-4.79 32.76-9.7 49.04-14.91 1.87-.6 3.73-1.19 5.6-1.79 31.18-9.94 62.31-20 93.4-30.21.81-.27 1.63-.54 2.47-.81 19.2-6.31 38.32-12.8 57.36-19.56 7.8-2.77 15.63-5.46 23.49-8.06 10.43-3.46 20.78-7.11 31.11-10.82 1.86-.67 3.72-1.33 5.58-2 11.22-4.02 22.41-8.08 33.59-12.2 15.65-5.76 31.32-11.44 46.99-17.13 2.38-.87 4.76-1.73 7.14-2.6 1.16-.42 2.31-.84 3.51-1.27 6.54-2.38 13.08-4.76 19.62-7.16 37.61-13.75 75.53-26.69 114.14-37.39.88-.24 1.76-.49 2.66-.74 67.44-18.52 135.88-27.08 205.34-33.26l.97-3.27c2.77-9.12 4.83-15.63 13.28-20.67 6.72-1.9 11.7-1.85 18.12.63 6.18 3.94 8.21 8.23 10.7 14.91.93 2.4.93 2.4 2.93 6.4l17 1 2-8 2-3c.29-1.42.57-2.85.87-4.31 1.9-7.9 5.34-11.37 12.13-15.69 5.96-1.99 11.99-1.79 17.81.5"/><path fill="#63b323" d="M214.152 428.813c28.5-.75 54.61 8.15 75.61 28.01l2.24 2.18c.35.33.35.33 2.14 1.99 5.09 4.84 9.07 10.1 12.86 16.01.59.9 1.17 1.81 1.78 2.74 7.91 12.81 13.68 27.93 14.47 43.07.83 4.65 2.45 6.54 5.7 9.88 4.6 5.18 10.94 13.11 11.05 20.31-1.55 3.82-1.55 3.82-3.75 8.12-4.62 9.42-7.24 16.7-7.45 27.26-.19 9.51-1.27 15.43-7.8 22.62-6.35 10.72-6.3 24.03-4 36-12.27 11.02-26.6 17.83-42.33 22.42-18.24 5.4-18.24 5.4-22.89 13.19-1.8 3.72-3.28 7.53-4.78 11.39-2.11 2.99-2.11 2.99-4.13 5.43-5.74 7.89-2.6 20.49-1.87 29.76.19 2.43.38 4.86.56 7.29.08 1.06.17 2.12.25 3.21.21 3.78.22 7.53.19 11.31 1.22-.24 2.44-.48 3.7-.72 13.07-2.53 26.16-4.85 39.28-7.09 57.76-9.88 57.76-9.88 73.85-14.18 9.96-2.42 20.09-4.14 30.17-6.01.1 7.84-.34 15.07-1 23h27l-2-28 9-2c1.67-.64 3.34-1.31 5-2 1.8-.48 3.61-.92 5.44-1.33 1.05-.24 2.1-.48 3.18-.73 1.11-.25 2.23-.5 3.38-.75 2.34-.54 4.69-1.07 7.03-1.61 1.17-.26 2.34-.53 3.55-.8 4.97-1.14 9.95-2.3 14.92-3.47.8-.19.8-.19 4.84-1.14 3.34-.84 6.59-1.74 9.87-2.75 3.66-1.09 7.1-1.95 10.85-2.55 4.84-.77 4.84-.77 5.94-1.87 2.83-.58 5.68-1.03 8.53-1.5 2.47-.5 2.47-.5 3.47-1.5.99-.13 1.98-.25 3-.38 3.68-.57 6.89-1.6 10.41-2.8 4.71-1.49 9.53-2.53 14.34-3.63 7.9-1.86 15.72-3.83 23.5-6.13 9.65-2.85 19.4-5.19 29.19-7.52 10.69-2.54 21.25-5.42 31.8-8.48 6.88-1.94 13.82-3.64 20.76-5.37.4-.11.4-.11 2.43-.62 10.71-2.68 21.43-5.21 32.23-7.47 4.83-1.02 9.55-2.18 14.28-3.6 7.32-2.21 14.77-3.68 22.27-5.16 5.86-1.18 11.6-2.57 17.36-4.18 2.93-.8 5.88-1.42 8.87-1.97 4.75-.93 9.5-1.89 14.23-2.93 56.25-12.41 113.57-22.62 170.77-29.34 3.28-.39 6.54-.8 9.81-1.23 26.3-3.46 52.72-6.04 79.15-8.24.66-.06.66-.06 4.01-.34 1.15-.09 2.31-.19 3.5-.29 3.09-.32 3.09-.32 5.42-.81 2.8-.54 5.52-.79 8.36-.98 1.12-.07 2.25-.15 3.41-.23 1.21-.08 2.42-.16 3.67-.24 1.28-.08 2.56-.17 3.87-.26 2.72-.18 5.43-.36 8.15-.53l12.13-.81c14.69-.97 29.36-1.74 44.07-2.12 6.12-.17 12.15-.5 18.24-1.1 25.41-2.22 51.24-1.4 76.73-1.37 5.49 0 10.98 0 16.47-.01h18.97c10.15-.01 20.24.12 30.37.89 4.55.35 9.11.5 13.67.64 1.95.07 3.9.13 5.85.2 1.01.04 2.03.07 3.08.11 64.28 2.27 127.98 8.38 191.83 15.96.94.11 1.87.22 2.84.33 8.97 1.08 17.9 2.47 26.82 3.9 5.34.84 10.68 1.63 16.02 2.4 1.52.22 3.04.45 4.61.67l8.95 1.29c6.94 1 13.71 2.22 20.56 3.75 2.15.32 4.3.62 6.45.91 6.94.97 13.81 2.19 20.69 3.51 1.2.23 2.41.46 3.65.7l11.46 2.19 7.53 1.44q7.455 1.41 14.91 2.85c4.84.93 9.69 1.85 14.54 2.76 1.15.22 2.31.44 3.5.67 2.16.41 4.32.81 6.47 1.22 9.04 1.72 17.93 3.97 26.84 6.27 6.11 1.55 12.27 2.85 18.46 4.1 9.24 1.88 18.37 4.01 27.5 6.38 2.5.62 5 1.25 7.5 1.87.65.17.65.17 3.97 1 3.41.85 6.83 1.7 10.24 2.54 10.67 2.64 21.28 5.38 31.86 8.37 4.83 1.33 9.68 2.53 14.55 3.72 7.45 1.82 14.74 3.97 22.03 6.32 3.86 1.18 7.73 2.17 11.66 3.11 6.6 1.61 13.02 3.55 19.48 5.64 6.77 2.18 13.6 4.1 20.46 5.99 8.08 2.23 16.06 4.6 23.99 7.32 5.38 1.84 10.82 3.46 16.26 5.12 9.8 3.01 19.55 6.16 29.26 9.47 3.75 1.21 7.5 2.31 11.3 3.37 7.86 2.22 15.55 4.89 23.25 7.59 9.64 3.36 19.26 6.56 29.09 9.34 6.14 1.84 12.16 4 18.21 6.14 7.79 2.74 15.64 5.29 23.53 7.74.85.27 1.7.53 2.57.8.74.23 1.47.46 2.22.69 2.12.71 4.22 1.48 6.31 2.27 4.36 1.63 8.76 3.09 13.19 4.51 1.72.56 3.44 1.11 5.16 1.67 2.66.86 5.32 1.71 7.97 2.57 10.44 3.35 20.83 6.8 31.14 10.52 5.33 1.85 10.74 3.4 16.16 4.95 6.51 1.92 12.97 4.02 19.42 6.13 6.89 2.24 6.89 2.24 10.22 2.24-.08-.31-.08-.31-.5-1.88-1.86-11.61.82-20.97 6.5-31.12.66-.73 1.33-1.45 2.01-2.2 2.61-3.68 3.06-6.93 3.86-11.37 3.22-15.52 10.06-27.61 23.24-36.64 13.94-8.63 27.45-10.38 43.4-6.78 5.64 1.6 11.28 3.78 15.49 7.99-.14-.7-.27-1.4-.4-2.13-.18-.95-.36-1.9-.54-2.87-.17-.93-.35-1.86-.53-2.81-4.36-26-1.27-50.33 13.77-72.61 3.14-4.26 6.18-8.1 10.07-11.71 3.65-5.39 3.9-10.6 4.8-16.98 4.03-23.89 16.49-43.58 32.83-60.89.68-.75 1.37-1.5 2.07-2.27 19.93-21.03 49.6-34 78.47-34.97 38.24-.7 69.35 11.23 97.27 37.61 10.02 10.5 17.24 22.47 23.19 35.63.2.44.2.44 1.24 2.67 4.6 10.62 7.72 22.89 7.86 34.48.02.94.03 1.88.05 2.85.02 1.95.03 3.9.01 5.85.16 7.08 1.76 9.96 6.84 15.15 12.54 20.25 17.66 42.04 14.5 65.72a75 75 0 0 1-2.5 8.28c-.37 1.06-.73 2.12-1.1 3.21-10.56 29.19-31.31 47.76-58.9 60.79-.64.33-.64.33-3.89 2.04-4.44 2.11-8.89 3.58-13.61 4.89-.9.27-1.79.53-2.71.8-5.05 1.43-9.99 2.5-15.18 3.2-15.92 2.26-15.92 2.26-20.81 7.48-2.24 4.09-2.24 4.09-4.04 8.4-1.8 4.28-3.93 7.08-6.89 10.62-4.97 7.09-4.27 12.56-3.16 20.88.6 5.56.67 11.16.85 16.75.08 2.28.17 4.57.25 6.85.07 1.69.13 3.39.19 5.09 1.45.12 2.89.25 4.38.38 5.22.52 10.31 1.46 15.43 2.55 6.44 1.34 12.87 2.55 19.39 3.48 3.74.58 7.47 1.23 11.21 1.89 14.05 2.5 28.15 4.66 42.28 6.76 2.27.34 4.55.68 6.83 1.03 4.44.66 8.87 1.32 13.31 1.99 3.85.57 7.69 1.15 11.54 1.73 11.73 1.79 23.48 3.43 35.25 4.94.97.12 1.93.25 2.93.37 22.01 2.82 44.09 5.15 66.16 7.43 1.36.14 2.72.28 4.11.43 2.5.25 4.99.51 7.48.76 12.26 1.27 24.46 2.79 36.7 4.26v237H.002v-346c41.33-4.47 41.33-4.47 57.36-5.78 14.18-1.18 28.28-2.55 42.36-4.65 13.5-1.98 27.07-3.33 40.64-4.73 10.75-1.13 21.42-2.47 32.09-4.16 9.79-1.47 19.63-2.85 29.55-2.68.12-1.61.24-3.22.36-4.87 1.52-19.69 1.52-19.69 2.76-29.38.3-2.59.59-5.17.88-7.75.14-1.14.29-2.27.44-3.44.63-8.4-2.03-13.21-6.89-19.98-2.55-3.58-2.55-3.58-3.79-6.14-3.39-6.8-3.39-6.8-7.24-8.6-3.03-.71-6-1.16-9.08-1.53-2.26-.36-4.51-.74-6.76-1.12-.56-.1-.56-.1-3.41-.57-24.29-4.61-49.37-17.58-64.27-37.62-11.66-17.9-16.15-35.9-12.89-57.18 2.07-8.93 5.66-17.51 11.76-24.39 4.95-6.5 3.86-14.86 3.98-22.66.41-24.28 11.34-46.78 27.15-64.77.78-1.03 1.57-2.07 2.37-3.13 4.11-4.49 8.84-8.13 13.63-11.87.41-.34.41-.34 2.49-2.04 17.4-13.6 38.87-20.17 60.66-21.15"/><path fill="#b5dd6e" d="M2497.813 1.5c7.27 5.7 9.49 10.6 11.19 19.5l3 4c.68 3.75.68 3.75 1 7 1.52-.02 3.04-.05 4.6-.07 133.49-1.38 133.49-1.38 170.4 17.07v303c-3.69-.62-7.3-1.24-10.95-2.03-.94-.2-1.88-.4-2.84-.61-.51-.11-.51-.11-3.05-.65-2.18-.47-4.37-.94-6.55-1.4-1.14-.25-2.29-.49-3.46-.74-36.75-7.85-73.66-15.24-110.94-20.15-2.32-.3-4.65-.62-6.97-.93-74.03-10.05-148.49-13.25-223.12-14.02-4.89-.05-9.78-.11-14.67-.16-9.48-.11-18.97-.21-28.45-.31 1.14-6.32 3.69-11.2 8-16 2.6-1.26 4.94-1.75 7.77-2.29 12.62-2.79 24.97-9.43 32.6-20.02 6.08-10.05 7.69-18.65 5.94-30.25-1.76-5.94-4.18-11.06-8.36-15.73-2.45-3.4-3-6.3-3.83-10.4-1.66-7.09-3.77-12.48-8.12-18.31a632 632 0 0 1-1.56-2.14c-7.86-9.87-20.06-15.95-32.44-17.86-17.48-1.05-31.83 1.74-45.19 13.31-7.85 7.38-16.47 18.03-16.92 29.33-.03 1-.05 2.01-.08 3.05-.49 6.63-2.62 9.27-6.81 14.31-3.84 7.3-4.1 14.95-3 23 4.84 14.29 13.1 21.64 26.24 28.3 6.08 2.75 11.89 4.61 18.57 4.82 4.47 1.23 5.63 3.78 7.93 7.65.41.74.83 1.47 1.26 2.23l2 3c.12 3.19.12 3.19 0 6-.74.03-1.47.05-2.23.08-3.38.11-6.77.24-10.15.36l-3.5.12c-5.8.21-11.53.55-17.31 1.18-6.69.61-13.41.82-20.12 1.14-15.32.74-30.58 1.83-45.85 3.15-.72.07-.72.07-4.4.38-1.27.12-2.54.23-3.85.35-3.55.24-7.04.28-10.59.24l1-4c3.53-1.52 3.53-1.52 8-3 15.34-6.53 25.81-12.5 32.37-28.31 1.8-10.59.92-19.23-4.37-28.69-.89-.99-1.78-1.98-2.69-3-2.99-3.88-3.1-7.07-3.73-11.84-2.12-11.57-9.39-21.15-18.58-28.16-8.74-5.69-17.56-8.07-28-7-2.35.96-4.68 1.97-7 3-1.79.15-3.58.25-5.38.31-6.18.41-9.89 2.88-14.62 6.69-.84.62-1.68 1.24-2.54 1.88-7.89 6.79-12.93 18.11-13.84 28.37-.83 5-3.3 6.98-6.62 10.75-5.28 8.25-6.26 16.37-5 26 3.26 11.95 10.42 19.85 21 26 9.94 4.62 21.14 6.94 32 8l-1 6c-.9.08-1.79.15-2.71.23-15.2 1.29-30.33 2.58-45.39 5.03-5.75.87-11.5 1.49-17.28 2.12-10.97 1.2-21.82 2.91-32.7 4.78-7.55 1.29-15.08 2.47-22.67 3.46-26.45 3.48-26.45 3.48-30.25 5.38-3.1.49-6.2.94-9.31 1.38-6.93.99-13.7 2.2-20.49 3.89-3.02.69-5.99 1.18-9.05 1.61-7.96 1.19-15.79 2.86-23.65 4.56-.71.15-.71.15-4.26.91-8.44 1.8-16.85 3.69-25.24 5.65-1.97.45-3.94.91-5.9 1.36-4.29.99-8.58 1.98-12.86 2.97-4.95 1.14-9.9 2.28-14.86 3.4-12.87 2.95-25.62 6.06-38.29 9.8-5.64 1.65-11.33 3.13-17.03 4.59-7.24 1.87-14.45 3.8-21.63 5.89-4.03 1.16-8.08 2.26-12.12 3.37-8.03 2.22-15.98 4.67-23.91 7.21-4.72 1.51-9.45 2.97-14.19 4.42-3.6 1.11-7.19 2.24-10.78 3.37-5.83 1.83-11.69 3.58-17.56 5.31-8.93 2.65-17.78 5.55-26.62 8.5-1.29.43-2.57.85-3.9 1.3a500 500 0 0 0-18.35 6.51c-4.52 1.53-9.04 3.01-13.57 4.5-4.18 1.41-8.3 2.94-12.43 4.5-2.65.94-5.29 1.88-7.94 2.81-1.48.52-2.95 1.04-4.47 1.58-1.52.53-3.03 1.06-4.59 1.61l-8.88 3.12c-1.29.46-2.59.92-3.93 1.39-6.39 2.27-12.77 4.6-19.14 6.95-4.43 1.63-8.87 3.24-13.3 4.85-1.52.57-3.03 1.13-4.59 1.71-1.46.52-2.92 1.05-4.43 1.59-1.32.49-2.63.97-3.99 1.47-6.56 1.62-11.61-.2-17.75-2.63-1.32-.51-2.64-1.03-3.99-1.56-1.36-.54-2.73-1.08-4.13-1.64-2.69-1.06-5.38-2.11-8.07-3.17-1.3-.52-2.61-1.03-3.95-1.57-4.7-1.84-9.4-3.66-14.12-5.46-8.88-3.41-17.62-7.11-26.37-10.85-4.28-1.79-8.6-3.43-12.95-5.05-8.34-3.1-16.6-6.39-24.85-9.71l-9.18-3.69c-.77-.31-1.54-.62-2.34-.93-9.72-3.9-19.46-7.73-29.21-11.56-10.9-4.28-10.9-4.28-16.23-6.42-12.8-5.12-25.68-10.03-38.6-14.84-15.05-5.62-15.05-5.62-22.44-8.5-6.41-2.48-12.89-4.74-19.37-7.01-5.77-2.05-11.49-4.25-17.19-6.49 1.3-3.91 3.7-5.05 6.93-7.4 5.06-3.92 8.12-8.55 10.07-14.6.54-6.46-.22-11.15-3-17-.44-.47-.44-.47-2.63-2.88-2.74-3.6-2.77-6.03-3.02-10.47-1.01-7.57-5.94-14.53-11.35-19.65-8.57-5.98-16.7-7.34-27-6-10.41 2.74-17.1 9.38-22.56 18.22-2.54 4.9-3.63 9.16-3.82 14.66-.37 5.55-1.99 9.18-4.62 14.12-.87 3.32-1.44 6.61-2 10-3.87-.72-7.49-1.8-11.22-3.07-29.48-9.89-59.9-18.61-90.34-24.95-3.95-.87-7.87-1.84-11.79-2.85-9-2.26-18.06-4.16-27.15-6.01q-1.26-.255-2.55-.51c-49.88-10.15-99.71-17.62-150.39-22.2-3.71-.33-7.42-.68-11.13-1.03-34.37-3.2-68.81-3.69-103.3-3.58-4.11.02-8.21.01-12.31.01-31.72.01-63.45.12-95.07 2.88-1.01.08-2.02.17-3.05.26-49.82 4.24-99.45 10.17-148.47 20.2-5.08 1.02-10.18 1.89-15.3 2.73-9.45 1.59-18.79 3.57-28.14 5.69-10.91 2.48-21.86 4.79-32.82 7.07-.66.14-.66.14-4.02.84-1.17.25-2.35.49-3.56.75-3.51.8-6.93 1.77-10.39 2.77-3.39.88-6.78 1.75-10.17 2.6-.96.24-1.91.48-2.9.73-2.01.51-4.03 1.02-6.04 1.52l-6.18 1.56q-4.47 1.14-8.94 2.25c-.46.12-.46.12-2.79.71-3.78.95-7.07 1.63-10.98 1.63-.51-2.77-1-5.54-1.5-8.31l-.85-4.68c-.65-4.01-.65-4.01-.65-7.01 1.61-.27 3.21-.54 4.87-.81 15.55-2.87 29.5-9.06 39.13-22.19 4.91-8.37 5.7-18.35 3.3-27.71-1.58-3.88-3.56-6.56-6.43-9.6-3.4-4.36-3.65-7.15-4.33-12.5-1.83-10.78-7.38-20.3-16.11-26.88-12.67-8.2-25.8-10.74-40.78-7.61-13.61 4.53-23.84 14.59-30.4 27.18-2.84 6.41-3.12 12.95-3.5 19.89-.87 4.91-2.71 7.34-5.75 11.23-2.69 8.96-3.17 17 .7 25.59 4.97 9.21 12.86 14.22 22.3 18.41 3.13.85 6.28 1.64 9.43 2.38 5.77 1.47 9.51 2.51 13.19 7.31 3.47 6.3 2.89 11.41 1.97 18.41-1.59 2.9-1.59 2.9-6.03 4.69-1.85.49-3.7.96-5.56 1.4-1.84.47-3.67.94-5.5 1.42-.91.22-1.82.45-2.76.68-6.18 1.6-12.27 3.5-18.31 5.59-2.14.71-4.29 1.41-6.43 2.12-1.39.46-2.77.93-4.19 1.4-1.47.47-2.93.93-4.44 1.41-.67.22-.67.22-4.1 1.33-10.37 2.08-20.41-1.53-30.4-4.2-1.43-.38-2.86-.76-4.34-1.15q-5.265-1.38-10.53-2.79c-1.35-6.46-2.13-11.74 1.25-17.69 3.41-4.69 7.31-6.2 12.65-8.14 9.62-3.63 17.17-9.36 22.53-18.17 2.82-7.19 3.26-15.92.29-23.08a70 70 0 0 0-4.72-6.92c-2.23-3.34-2.35-5.01-2.75-8.94-1.59-10.94-6.38-20.29-15.25-27.06-9.73-5.97-19.74-8.76-31.06-6.35-7.16 2.13-12.51 5.25-17.94 10.35-.64.6-1.28 1.19-1.94 1.81-8.1 8.38-10.24 17.54-10.62 28.89-.48 3.61-1.43 5.35-3.51 8.3-4.11 6.02-3.89 11.94-2.93 19 2.19 8.26 7.43 14.55 14.5 19.19 4.14 2.4 8.03 3.5 12.69 4.56 6.42 1.68 9.42 3.93 12.81 9.63 1.46 3.82 1.07 6.74 0 10.62-7.85-.58-15.1-2.12-22.72-4.07-17.31-4.3-34.76-7.82-52.25-11.29-2.63-.52-5.26-1.05-7.89-1.57-21.84-4.35-43.7-8.58-65.64-12.38-.5-.09-.5-.09-3.04-.53-13.56-2.35-27.15-4.19-40.81-5.84-5.98-.73-11.94-1.57-17.9-2.38a741 741 0 0 0-30.46-3.51c-5.07-.51-10.11-1.2-15.15-1.97-3.71-.54-7.43-1-11.14-1.46V94c9.46-3.44 18.72-6.26 28.43-8.81l2.5-.66c56.99-14.93 116.84-22.67 175.76-22.7 1.92 0 3.85 0 5.77-.01 4.01 0 8.02-.01 12.02-.01 4.03 0 8.05 0 12.08-.02 24.46-.08 48.73.42 73.15 2.03 3.77.21 7.52.26 11.29.18-2.2-4.54-4.1-5.84-8.81-7.5-6.68-2.6-10.67-5.09-14.57-11.25-1.82-4.78-2.07-8.17-1.62-13.25l2-4c.18-1.36.37-2.72.56-4.12 1.5-7.1 6.75-12.44 12.68-16.36 7.45-3.66 14.63-4.5 22.45-2.02 6.49 2.66 10.46 6.45 14.12 12.5 1.19 3 1.19 3 2.19 6.56 1 3.44 1 3.44 2.62 5.82 2.1 4.01 1.8 7.16 1.38 11.62-3.65 8.42-9.8 12.37-18 16h-3c-1.08 2.65-2.1 5.28-3 8 .8-.02 1.6-.05 2.43-.07 9.98-.16 19.68.81 29.57 2.07-.19-1.25-.38-2.5-.58-3.78-.49-4.9.34-6.9 2.58-11.22.57-1.38 1.15-2.76 1.75-4.19 2.64-4.47 4.45-5.89 9.25-7.81 4.1-.43 6.88-.47 10.69 1.12 4.88 3.97 7.6 7.85 9.31 13.88l2 4c-.27 5.08-.87 6.82-4 11 .97.12 1.94.24 2.94.36 102.6 12.74 203.86 33.61 338.06 73.64 1.35.42 2.7.83 4.1 1.26 49.13 15.23 97.45 33.49 145.36 52.19 1.08.42 2.17.84 3.28 1.27 2.25.88 4.49 1.81 6.71 2.76 1.12.46 2.24.93 3.4 1.41.99.43 1.98.86 3 1.3 7.13 1.84 14.27-.89 21.16-2.85 1.98-.55 3.95-1.1 5.93-1.64 1.02-.29 2.05-.58 3.11-.87 21.51-5.99 43.05-11.44 64.95-15.83.41-.08.41-.08 2.48-.5 41.79-8.36 83.98-13.8 126.52-16.5.78-.05.78-.05 4.73-.31 61.59-3.92 123.52-2.22 184.98 2.95 6.57.55 13.15 1.05 19.72 1.55l6.25.48c1.43.11 2.85.22 4.32.33l-1-3c-1.22-.41-2.44-.82-3.69-1.25-5.2-2.11-7.28-4.05-10.31-8.75-.85-6.62.23-11.95 3-18 4.82-5.48 9.51-8.66 16.81-9.38 5.88.53 10.13 2.44 14.44 6.5 4.44 7.31 6.81 13.24 4.75 21.88-2.78 5-6.86 6.76-12 9h-2l-1 5c.83.05 1.66.1 2.52.15 9.02.57 17.91 1.62 26.85 2.91.66.1.66.1 4 .57 3.21.45 6.42.91 9.63 1.37v-2a1706 1706 0 0 0-3.81-1.75c-4.19-2.25-4.19-2.25-7.19-6.25-1.12-5.89 1.84-11.17 5-16 4.46-3.35 6.51-3.83 12-4 4.68 1.68 5.93 2.92 9 7 .69 1.66 1.36 3.32 2 5l1 1c.57 4.1.2 5.69-2.13 9.19-2.85 2.79-5.35 4.05-8.87 5.81l-1 4c.9.04 1.8.07 2.72.11 11.87.61 23.52 2.17 35.28 3.89-3-3-3-3-6.19-5.31-2.81-2.69-2.81-2.69-3.44-5.5 1.09-5.56 2.86-9.85 7.44-13.31 4.11-1.13 6.28-.5 10.19 1.12 3.28 3.28 4.52 5.63 6 10 0 3.19 0 3.19-1 6-2.63 2.56-4.52 3.84-8 5v4c.72.1 1.43.2 2.18.31 9.98 1.47 19.86 3.39 29.75 5.38.88.17 1.76.35 2.66.53 16.22 3.26 32.35 6.82 48.41 10.78 1.19.29 2.39.59 3.62.89 37.59 9.27 75.46 19.95 111.78 33.45.91.34 1.83.68 2.77 1.03 2.27.85 4.52 1.73 6.78 2.62 8.63 2.16 17.07-.59 25.38-3.05 1.06-.31 2.12-.62 3.21-.93 3.43-1 6.85-2 10.27-3.01 2.38-.7 4.77-1.39 7.15-2.09 16.41-4.79 32.76-9.7 49.04-14.91 1.87-.6 3.73-1.19 5.6-1.79 31.18-9.94 62.31-20 93.4-30.21.81-.27 1.63-.54 2.47-.81 19.2-6.31 38.32-12.8 57.36-19.56 7.8-2.77 15.63-5.46 23.49-8.06 10.43-3.46 20.78-7.11 31.11-10.82 1.86-.67 3.72-1.33 5.58-2 11.22-4.02 22.41-8.08 33.59-12.2 15.65-5.76 31.32-11.44 46.99-17.13 2.38-.87 4.76-1.73 7.14-2.6 1.16-.42 2.31-.84 3.51-1.27 6.54-2.38 13.08-4.76 19.62-7.16 37.61-13.75 75.53-26.69 114.14-37.39.88-.24 1.76-.49 2.66-.74 67.44-18.52 135.88-27.08 205.34-33.26l.97-3.27c2.77-9.12 4.83-15.63 13.28-20.67 6.72-1.9 11.7-1.85 18.12.63 6.18 3.94 8.21 8.23 10.7 14.91.93 2.4.93 2.4 2.93 6.4l17 1 2-8 2-3c.29-1.42.57-2.85.87-4.31 1.9-7.9 5.34-11.37 12.13-15.69 5.96-1.99 11.99-1.79 17.81.5"/><path fill="#94cb30" d="M294.25 237.688c9.19 7.62 15.18 15.67 16.56 27.69.91 7.16 4.02 11.88 8.19 17.62 2.76 5.52 1.81 14.17.16 19.94-5.49 11.81-15.51 17.97-27.16 23.06-2 .34-4 .68-6 1-1.19 2.32-1.19 2.32-2 5l-3 4c-.29 3.24-.29 3.24-.19 6.75.03 1.17.06 2.34.08 3.55.04.89.07 1.78.11 2.7 1.03.1 2.05.19 3.11.29 6.48.95 12.74 2.54 19.08 4.15 1.25.31 2.51.63 3.81.95 5.15 1.29 10.08 2.61 15 4.61 1.69.52 3.38 1.01 5.08 1.48.98.28 1.97.55 2.98.83 1.05.29 2.11.58 3.19.88 1.1.3 2.19.61 3.32.92 4.62 1.29 9.23 2.56 13.85 3.84 3.3.91 6.6 1.82 9.89 2.74 1 .27 1.99.55 3.01.83 6.04 1.67 11.97 3.56 17.9 5.57 3.7 1.22 7.45 2.23 11.22 3.22 8.69 2.38 17.2 5.18 25.73 8.07 7.32 2.47 14.7 4.7 22.12 6.88 12.16 3.58 24.16 7.53 36.15 11.68 3.62 1.25 7.24 2.49 10.86 3.73.86.3 1.73.6 2.62.91 6.07 2.08 12.16 4.12 18.27 6.11 9.8 3.24 19.48 6.81 29.16 10.41 5.65 2.09 11.29 4.14 17.01 6.02 4.84 1.59 9.55 3.39 14.27 5.32 9.49 3.85 19.05 7.53 28.62 11.19 1.41.54 2.82 1.07 4.27 1.63 6.97 2.66 13.94 5.29 20.93 7.89 5.77 2.16 11.45 4.43 17.11 6.85 8.92 3.8 17.9 7.43 26.92 10.98 6.16 2.44 12.26 5.02 18.36 7.6 8.46 3.57 16.96 7.03 25.47 10.48 7.25 2.94 14.47 5.93 21.69 8.94 1.98.83 3.97 1.65 5.95 2.48 6.28 2.61 12.54 5.25 18.8 7.9 1.14.48 2.28.96 3.45 1.46 7.35 3.11 14.68 6.28 21.98 9.5 9.42 4.11 18.91 8.05 28.41 11.97 11.98 4.95 23.86 10.08 35.69 15.37 9.51 4.25 19.09 8.33 28.72 12.32 4.06 1.69 8.13 3.38 12.19 5.07 1.03.42 2.06.85 3.12 1.29 6.8 2.84 13.56 5.76 20.3 8.73 42.72 18.64 42.72 18.64 50.39 19.91v1c-1.59.17-3.18.34-4.82.52-12.59 1.36-25.17 2.81-37.74 4.42-1.16.15-2.31.29-3.5.44-23.44 3.03-46.76 7-70.07 10.87-1.44.24-2.88.48-4.37.73-21.85 3.64-43.59 7.59-65.27 12.14-4.29.9-8.59 1.75-12.89 2.6-1.37.27-2.74.54-4.15.82l-7.51 1.47c-6.17 1.23-12.27 2.61-18.37 4.17-8.52 2.11-17.12 3.9-25.69 5.77-9.92 2.19-19.78 4.55-29.62 7.05l-10.87 2.73-5.74 1.44c-.96.24-1.91.48-2.9.72-1.96.5-3.93.99-5.89 1.48-2.89.73-5.77 1.45-8.66 2.17-.86.22-1.73.44-2.62.66-4.07 1.02-8.13 2-12.22 2.9-3.76.83-7.41 1.81-11.1 2.9-15.29 4.35-30.7 8.17-46.17 11.84-7.41 1.78-14.64 3.65-21.83 6.16-2.49.68-4.99 1.33-7.5 1.94-1.36.34-2.73.67-4.13 1.02-6.03 1.44-12.07 2.83-18.12 4.21-3.25.83-3.25.83-4.25 1.83-1.07.15-2.14.29-3.25.44-3.75.56-3.75.56-6.25 1.56-3.13 1.25-6.17 1.53-9.5 2-.76.31-1.51.63-2.29.95-3.15 1.23-6.2 1.81-9.52 2.43-10.4 2.02-20.61 4.68-30.85 7.36-1.19.31-2.38.62-3.6.94-2.36.62-4.72 1.24-7.07 1.86-5.13 1.34-10.23 2.61-15.43 3.61-4.24.85-4.24.85-5.24 1.85-3 .37-6 .71-9 1 .14.77.29 1.53.44 2.32 1.5 8.66 1.72 16.89 1.56 25.68h-27c0-8 .18-15.16 1-23-1.51.43-3.02.87-4.58 1.31-6.97 1.9-14.02 3.33-21.11 4.76l-7.57 1.53-3.34.67c-2.41.52-4.81 1.09-7.2 1.7-4.67 1.15-9.36 2.07-14.07 2.95l-2.87.54c-3.09.58-6.17 1.16-9.26 1.73-1.06.2-2.11.39-3.2.6-14.17 2.64-28.35 5.25-42.55 7.76-1.69.3-3.38.6-5.06.9-8.73 1.55-17.35 2.92-26.19 3.55-1.21-10.72-2.34-21.42-2.81-32.21-.19-3.79-.19-3.79-.6-6.76-.84-8.07 3.08-12.87 7.77-19.18 2.64-3.85 2.64-3.85 4.07-7.57 2.07-5.38 4.07-9.05 9.41-11.68 6.11-2.37 12.36-4.25 18.62-6.16 6.81-2.1 13.02-4.77 19.29-8.13q1.215-.63 2.46-1.29c5.71-3.13 10.76-6.9 15.79-11.02-.16-.84-.32-1.68-.48-2.55-2.38-15.88.67-28.22 9.48-41.45l2-2c.18-3.05.27-6.06.31-9.12.44-13.31 4.01-24.76 10.65-36.33 1.26-3.09 1.09-4.41.04-7.55-3.69-7.6-9.02-15.02-15-21-.25-2.14-.48-4.29-.69-6.43-3.04-23.56-14.28-43.53-30.31-60.57-.52-.57-.52-.57-3.13-3.5-8.95-8.77-20.42-14.71-31.87-19.5-1.08-.5-2.16-1-3.27-1.52-13.84-5.48-29.04-6.14-43.73-5.48-.99.02-1.98.04-3 .07-19.87.96-40.76 10.47-56 22.93-.97.74-1.94 1.47-2.94 2.23-20.3 15.89-34.55 41.05-38.66 66.48-.31 3.3-.45 6.45-.47 9.75-.11 19.16-.11 19.16-7.93 27.54-9.15 16.21-11.19 33.89-7 52 7.57 23.41 21.91 38.16 43.06 50.19 11.25 5.74 23.18 9.89 35.63 12.04 1.12.2 2.25.39 3.4.6 2.18.36 4.37.68 6.56.96 7.31 1.17 7.31 1.17 10.23 4.1 1.56 2.31 2.86 4.63 4.12 7.11.83 1.36 1.66 2.73 2.52 4.13.38.64.38.64 2.29 3.87 4.09 6.9 4.09 6.9 5.19 8 .74 10.02-.55 20.06-1.65 30-.29 2.59-.57 5.18-.84 7.78-1.36 12.61-1.36 12.61-2.51 17.22-64.55 8.31-64.55 8.31-87.05 10.86-5.76.66-11.51 1.33-17.26 2.04-20.56 2.52-41.15 4.54-61.78 6.44-1.12.1-2.23.21-3.38.31-2.1.2-4.2.39-6.3.58-4.3.39-8.58.82-12.87 1.34-4.44.44-8.91.43-13.36.43v-479c11.52.64 22.63 1.47 34 3 2.74.34 5.48.67 8.22 1 1.36.17 2.73.33 4.14.5 1.36.17 2.73.33 4.14.5 5.5.67 11 1.33 16.5 2 1.37.17 2.73.33 4.14.5 1.34.17 2.69.33 4.08.5 1.18.15 2.37.29 3.59.44 10.09 1.35 20.13 3.03 30.17 4.74 1.22.21 2.44.42 3.69.63 51.78 8.89 103.13 19.42 154.33 31.19.08-6.25.01-9.88-3.64-14.97-4.13-3.55-9.2-4.41-14.37-5.8-9.19-2.83-16.1-9.01-20.99-17.23-2.65-6.55-2.92-13.03-2-20 1.33-2.67 2.9-4.94 4.62-7.38 1.73-3.28 1.82-5.8 1.94-9.49.4-11.01 4.35-19 11.99-26.87 14.23-13.1 32.9-17.37 49.7-5.57"/><path fill="#bfe47b" d="M2497.813 1.5c7.27 5.7 9.49 10.6 11.19 19.5l3 4c.69 3.75.69 3.75 1 7 1.52-.02 3.04-.05 4.6-.07 133.49-1.38 133.49-1.38 170.4 17.07v303c-3.69-.62-7.3-1.24-10.95-2.03-.94-.2-1.88-.4-2.84-.61-1.01-.21-2.01-.43-3.05-.65-2.18-.47-4.37-.94-6.55-1.4-1.14-.25-2.29-.49-3.46-.74-36.75-7.85-73.66-15.24-110.94-20.15-2.32-.3-4.65-.62-6.97-.93-74.03-10.05-148.49-13.25-223.12-14.02-4.89-.05-9.78-.11-14.67-.16-9.48-.11-18.97-.21-28.45-.31 1.14-6.32 3.69-11.2 8-16 2.6-1.26 4.94-1.75 7.77-2.29 12.62-2.79 24.97-9.43 32.6-20.02 6.08-10.05 7.69-18.65 5.94-30.25-1.76-5.94-4.18-11.06-8.36-15.73-2.45-3.4-3-6.3-3.83-10.4-1.66-7.09-3.77-12.48-8.12-18.31a632 632 0 0 1-1.56-2.14c-7.86-9.87-20.06-15.95-32.44-17.86-17.48-1.05-31.83 1.74-45.19 13.31-7.85 7.38-16.47 18.03-16.92 29.33-.03 1-.05 2.01-.08 3.05-.49 6.63-2.62 9.27-6.81 14.31-3.84 7.3-4.1 14.95-3 23 4.84 14.29 13.1 21.64 26.24 28.3 6.08 2.75 11.89 4.61 18.57 4.82 4.47 1.23 5.63 3.78 7.93 7.65.41.74.83 1.47 1.26 2.23l2 3c.12 3.19.12 3.19 0 6-.74.03-1.47.05-2.23.08-3.38.11-6.77.24-10.15.36l-3.5.12c-5.8.21-11.53.55-17.31 1.18-6.69.61-13.41.82-20.12 1.14-15.32.74-30.58 1.83-45.85 3.15-1.45.13-2.9.26-4.4.38-1.27.12-2.54.23-3.85.35-3.55.24-7.04.28-10.59.24l1-4c3.53-1.52 3.53-1.52 8-3 15.34-6.53 25.81-12.5 32.37-28.31 1.8-10.59.92-19.23-4.37-28.69-.89-.99-1.78-1.98-2.69-3-2.99-3.88-3.1-7.07-3.73-11.84-2.12-11.57-9.39-21.15-18.58-28.16-8.74-5.69-17.56-8.07-28-7-2.35.96-4.68 1.97-7 3-1.79.15-3.58.25-5.38.31-6.18.41-9.89 2.88-14.62 6.69-.84.62-1.68 1.24-2.54 1.88-7.89 6.79-12.93 18.11-13.84 28.37-.83 5-3.3 6.98-6.62 10.75-5.28 8.25-6.26 16.37-5 26 3.26 11.95 10.42 19.85 21 26 9.94 4.62 21.14 6.94 32 8l-1 6c-.9.08-1.79.15-2.71.23-15.2 1.29-30.33 2.58-45.39 5.03-5.75.87-11.5 1.49-17.28 2.12-9.68 1.06-19.27 2.48-28.87 4.12-8.97 1.53-17.93 3.04-26.94 4.31-.84.13-1.68.25-2.55.38-9.79 1.33-19 1.01-28.7-.69-1.02-.18-2.03-.35-3.08-.53-40.53-7.23-80.93-17.62-120.48-28.97-2.04-.58-4.08-1.15-6.11-1.73-15.41-4.4-30.67-9.27-45.89-14.27-1.47-.48-2.94-.96-4.45-1.46-31.03-10.22-31.03-10.22-46.25-15.96-4.98-1.83-10.01-3.49-15.05-5.14-7.19-2.36-14.19-4.96-21.18-7.84-6.12-2.41-12.35-4.5-18.57-6.63-5.7-1.96-11.3-4.05-16.88-6.35-5.19-2.13-10.09-3.65-15.62-4.62v-1c.61-.15.61-.15 3.69-.93 62.61-15.9 123.97-36.91 185.31-57.07.81-.27 1.63-.54 2.47-.81 19.2-6.31 38.32-12.8 57.36-19.56 7.8-2.77 15.63-5.46 23.49-8.06 10.43-3.46 20.78-7.11 31.11-10.82 1.86-.67 3.72-1.33 5.58-2 11.22-4.02 22.41-8.08 33.59-12.2 15.65-5.76 31.32-11.44 46.99-17.13 2.38-.87 4.76-1.73 7.14-2.6 1.16-.42 2.31-.84 3.51-1.27 6.54-2.38 13.08-4.76 19.62-7.16 37.61-13.75 75.53-26.69 114.14-37.39.88-.24 1.76-.49 2.66-.74 67.44-18.52 135.88-27.08 205.34-33.26l.97-3.27c2.77-9.12 4.83-15.63 13.28-20.67 6.72-1.9 11.7-1.85 18.12.63 6.18 3.94 8.21 8.23 10.7 14.91.93 2.4.93 2.4 2.93 6.4l17 1 2-8 2-3c.29-1.42.57-2.85.87-4.31 1.9-7.9 5.34-11.37 12.13-15.69 5.96-1.99 11.99-1.79 17.81.5"/><path fill="#3f9729" d="M2478.38 519.156c14.93 12.67 25.52 26.94 33.62 44.84.41.88.82 1.77 1.24 2.67 4.61 10.62 7.73 22.89 7.86 34.49.01.47.01.47.05 2.85.02 1.95.03 3.9.02 5.85.15 7.08 1.75 9.96 6.83 15.14 12.54 20.25 17.66 42.04 14.5 65.72-.67 2.85-1.5 5.53-2.5 8.28l-1.1 3.22c-10.56 29.19-31.3 47.75-58.9 60.78-1.28.68-2.56 1.35-3.87 2.04-4.51 2.14-9.03 3.64-13.82 4.96-.91.26-1.81.51-2.75.77-14.06 3.84-27.99 6.65-42.6 6.77-.98.15-1.96.31-2.96.46l-2 4c-2.94 3.75-2.94 3.75-6 7h-3l-2-9h-23l-1 10c-4.73-2.36-7.78-5.07-10.62-9.55-3.37-3.47-6.19-3.49-10.94-4.2-34.67-6.02-69.23-22.39-90.19-51.56-14.35-21.75-21.29-47.89-16.41-73.85 4.09-16.78 11.71-33.08 24.53-44.96 3.65-5.39 3.91-10.61 4.81-16.98 4.02-23.89 16.48-43.58 32.82-60.9.68-.74 1.37-1.49 2.07-2.27 43.38-45.78 118.25-45.66 165.31-6.57"/><path fill="#3f9629" d="M214.152 428.813c28.5-.75 54.61 8.15 75.61 28.01l2.24 2.18c.35.33.35.33 2.14 1.99 5.09 4.84 9.07 10.1 12.86 16.01.59.9 1.17 1.81 1.78 2.74 7.91 12.81 13.68 27.93 14.47 43.07.83 4.65 2.45 6.54 5.7 9.88 4.6 5.18 10.94 13.11 11.05 20.31-1.55 3.82-1.55 3.82-3.75 8.12-4.62 9.42-7.24 16.7-7.45 27.26-.19 9.51-1.27 15.43-7.8 22.62-6.35 10.72-6.3 24.03-4 36-13.27 11.92-29.4 18.77-46.06 24.62-1.2.43-2.4.85-3.64 1.29-7.47 2.52-14.42 3.85-22.3 4.09-.26.75-.51 1.51-.78 2.29-1.8 3.98-4.86 6.03-8.22 8.71-2-3-2-3-3-9h-19l-2 9c-4.32-2.16-6.14-4.19-9-8v-2c-.73.02-1.46.05-2.21.07-7.5.14-14.4-.6-21.73-2.14-1.08-.22-2.16-.44-3.27-.67-27.95-6.04-56.74-17.7-72.98-42.61-10.7-18.03-14.59-36.94-9.81-57.65 2.66-7.56 5.53-14.53 10.87-20.57 4.95-6.5 3.86-14.86 3.98-22.66.41-24.28 11.34-46.78 27.15-64.77.78-1.03 1.57-2.07 2.37-3.13 4.11-4.49 8.84-8.13 13.63-11.87.82-.68 1.64-1.35 2.49-2.04 17.4-13.6 38.87-20.17 60.66-21.15"/><path fill="#7ab823" d="M438.426 529.625c2.29 1.7 4.44 3.49 6.57 5.38.75.65 1.5 1.31 2.28 1.98 12.24 11.43 19.24 26.22 20.54 42.83.66 7 1.93 10.13 7.02 14.87 4.3 4.6 6.62 10.62 9.16 16.32.39.76.78 1.53 1.18 2.32 3.32 10.75 1.52 24.68-3.18 34.68-.35.78-.7 1.56-1.06 2.37-3.22 6.45-7.92 11.51-12.94 16.63-.61.64-1.23 1.28-1.86 1.94-4.86 4.66-10.37 7.42-16.42 10.29-3.63 1.73-7.16 3.58-10.72 5.45-9.11 4.55-18.66 8.14-29 7.32.3 1.35.6 2.71.9 4.11 1.33 6.65 2.04 13.33 2.73 20.07.13 1.28.26 2.56.4 3.88.86 8.71 1.26 17.17.97 25.94h-27c0-8.01.18-15.17 1-23-1.51.43-3.02.86-4.58 1.3-6.97 1.9-14.02 3.34-21.1 4.76l-7.58 1.53c-1.1.22-2.2.45-3.34.67-2.41.52-4.81 1.09-7.2 1.7-4.66 1.15-9.35 2.07-14.07 2.95-.95.18-1.89.36-2.87.54-3.08.58-6.17 1.16-9.26 1.73-.52.1-.52.1-3.19.6-14.18 2.65-28.36 5.25-42.56 7.76l-5.06.9c-8.72 1.56-17.34 2.93-26.19 3.56-1.21-10.73-2.33-21.43-2.8-32.22-.2-3.78-.2-3.78-.61-6.76-.84-8.07 3.08-12.87 7.77-19.18 2.64-3.84 2.64-3.84 4.07-7.56 2.08-5.38 4.08-9.05 9.42-11.69 6.11-2.37 12.35-4.25 18.62-6.16 6.81-2.1 13.01-4.76 19.28-8.12.82-.43 1.63-.86 2.47-1.3 5.71-3.13 10.75-6.9 15.78-11.01-.16-.85-.32-1.69-.48-2.56-2.37-15.88.67-28.22 9.48-41.44l2-2c.19-3.06.27-6.07.32-9.13.52-15.5 5.08-33.86 16.68-44.87 1.02-1.39 2.02-2.79 3-4.19 21.54-27.85 63.08-32.18 91.43-13.19"/><path fill="#42992a" d="M2296.313 183.75c14.3 9.4 21.77 21.24 25.5 37.88 1.49 4.23 3.84 7.37 6.53 10.94 4.86 7.12 5.53 16.01 4.66 24.43-2.7 10.94-8.59 20.62-18 27-19.61 11-19.61 11-30 11-.27.74-.53 1.49-.8 2.25-1.19 2.72-2.52 4.48-4.39 6.75-3.44 5.02-3.03 8.76-2.25 14.63.66 5.12.52 10.21.44 15.37-3.36 1.68-6.93 1.09-10.63 1.06-1.56-.01-3.12-.02-4.72-.02-1.21-.02-2.41-.03-3.65-.04-.07-5.11-.11-10.04.47-15.13.9-8.4 1.33-14.89-3.95-21.85-4.07-3.26-8.32-3.56-13.4-4.23-12.49-2.38-23.5-9.86-31.37-19.66-6.36-9.55-7.96-16.66-6.75-28.13 1.28-5.21 3.01-8.95 6.69-12.87 2.56-3.47 2.62-4.59 2.81-8.76.62-13.59 8.51-25.11 18.08-34.3 17.87-15.32 44.22-17.85 64.73-6.32"/><path fill="#7ebb26" d="M2150.938 209.625c13.07 7.64 19.89 18.04 24.06 32.38.07.72.07.72.44 4.37.65 4.18 2.38 6.27 5 9.51 5.62 7.59 6.64 15.89 5.56 25.12-2.26 10.15-7.95 18.53-16.5 24.52-6.96 4.1-14.39 7.55-22.12 9.85-4.79 2.31-6.62 5.78-8.38 10.63-.57 4.54-.47 8.99-.31 13.56.02 1.2.05 2.4.07 3.63.06 2.94.14 5.87.24 8.81-3.47.86-6.03 1.13-9.56 1.12-.95 0-1.9.01-2.88.01-2.56-.13-2.56-.13-5.56-1.13 1.72-28.17 1.72-28.17 4-35-1.15.03-2.31.07-3.5.1-15.95-.38-31.1-7.11-42.5-18.1-6.97-9.8-9.55-18.96-8-31 2.12-5.86 4.6-11.74 9.19-16.06 2.31-2.48 2.35-3.97 2.63-7.32 1.56-11.34 7.57-22.57 16.71-29.56 8.54-6.09 8.54-6.09 14.66-6.44 3.67-.29 5.9-.66 9.31-2.19 9.56-3.92 18.34-.57 27.44 3.19"/><path fill="#80bc26" d="M413.992 211.762c9.57 6.39 15.86 15.15 19.01 26.24q.435 3.06.81 6.12c.78 5.57 2.64 8.1 6.5 12.05 5.44 5.91 5.22 13.57 5.02 21.14-.93 10.26-6.01 16.71-13.33 23.69-3 2.31-3 2.31-6 4-1.34.82-2.68 1.65-4.06 2.5-8.02 4.37-16.75 7.22-25.94 6.5.3.79.61 1.58.93 2.4 1.3 4.37 1.78 8.7 2.19 13.22.09.88.17 1.77.26 2.67.6 6.6.79 13.09.62 19.71-3.48.87-6.04 1.13-9.56 1.12-.95.01-1.9.01-2.88.01-2.56-.13-2.56-.13-5.56-1.13-.07-4.58-.02-8.88.5-13.44.16-1.5.33-3.01.5-4.56.04-.42.04-.42.28-2.51.46-7.36-1.72-10.16-6.28-15.49v-2c-.37-.04-.37-.04-2.21-.26-13.8-1.93-25.19-7.26-35.17-17.05-6.35-8.93-7.55-16.45-5.93-27.32 1.31-4.37 1.31-4.37 3.84-7.62 2.89-4.4 3.08-6.97 3.28-12.19 1.04-12.19 5.91-22.54 14.19-31.56 2.68-2.23 2.68-2.23 5.44-4.19.9-.65 1.81-1.31 2.74-1.98 15.8-10.27 34.88-9.45 50.81-.07"/><path fill="#92ca30" d="m318 647 1 2.27c7.39 15.91 19.98 26.82 36 33.73 4.3 1.55 8.64 2.95 13 4.31l3.27 1.03c7.51 2.24 14.96 3.66 22.73 4.66l-1.44 11.06c-.06.52-.06.52-.41 3.15-.68 5.27-1.38 10.53-2.15 15.79-12.15 2.98-24.3 5.74-36.58 8.11-2.71.54-5.4 1.14-8.08 1.83-4.71 1.15-9.45 2.09-14.22 2.98-.94.18-1.89.35-2.86.54-3.09.58-6.17 1.15-9.26 1.73-.53.1-.53.1-3.2.59-14.17 2.65-28.35 5.26-42.55 7.77-1.69.3-3.38.6-5.06.9-8.73 1.55-17.35 2.92-26.19 3.55-1.21-10.73-2.34-21.42-2.81-32.21-.19-3.79-.19-3.79-.6-6.77-.84-8.06 3.08-12.86 7.77-19.18 2.64-3.84 2.64-3.84 4.07-7.56 2.07-5.38 4.07-9.05 9.41-11.68 6.11-2.38 12.36-4.25 18.62-6.16 6.81-2.1 13.02-4.77 19.29-8.13.81-.43 1.63-.85 2.46-1.29 5.06-2.77 9.51-6 13.95-9.68C316 647 316 647 318 647"/><path fill="#4c9c06" d="M294.25 237.688c9.19 7.62 15.18 15.67 16.56 27.69.91 7.16 4.02 11.88 8.19 17.62 2.76 5.52 1.81 14.17.16 19.94-5.49 11.81-15.51 17.97-27.16 23.06-2 .34-4 .68-6 1-1.19 2.31-1.19 2.31-2 5l-3 4c-.05 3.66.04 7.12.31 10.75.06.99.12 1.97.19 2.98.15 2.43.32 4.85.5 7.27-2.29.03-4.58.05-6.87.07l-3.87.03c-3.26-.1-3.26-.1-5.26-1.1.14-1.26.28-2.53.43-3.84 1.46-15.29 1.46-15.29-1.37-20.53-4.08-4.86-10.17-5.81-16.07-7.4-9.19-2.83-16.1-9.01-20.99-17.23-2.65-6.55-2.92-13.03-2-20 1.33-2.67 2.9-4.94 4.62-7.38 1.73-3.28 1.82-5.8 1.94-9.49.4-11.01 4.35-19 11.99-26.87 14.23-13.1 32.9-17.37 49.7-5.57"/><path fill="#92ca30" d="M2272 733c.48.41.48.41 2.94 2.5.32.28.32.28 1.96 1.67q2.07 1.8 4.08 3.69c6.42 6.01 13.49 10.62 21.02 15.14 1.08.67 2.17 1.34 3.29 2.03 10.25 5.94 21.2 9.4 32.45 12.99 1.07.35 2.14.69 3.25 1.05 1.87.58 3.75 1.1 5.66 1.55 4.78 1.19 6.25 2.23 9.06 6.37.77 1.62 1.51 3.25 2.23 4.89 2.99 6.38 5.93 11.43 10.75 16.68 4.26 5.25 4.88 8.64 4.56 15.38-.36 3.03-.77 6.05-1.25 9.06-.18 1.41-.36 2.81-.55 4.26-.43 3.26-.91 6.5-1.45 9.74-13.46-1.96-26.55-4.93-39.74-8.2-3.22-.79-6.45-1.56-9.68-2.31-11.78-2.76-23.43-5.79-35.04-9.18-4.52-1.3-9.04-2.48-13.61-3.59-6-1.48-11.96-3.11-17.93-4.72v-2c.72-.33.72-.33 4.38-2 11.38-5.75 18.52-13.46 24.56-24.56 3.05-12.75 1.68-23.74-5-34.88C2276 746 2276 746 2273 743c-.69-3.33-.78-6.59-1-10"/><path fill="#4c9d07" d="M1262.5 288.5c8.56 4.92 14.21 12.19 17.5 21.5.32 2.58.32 2.58.44 5.12.72 6.23 2.65 8.09 6.56 12.88 2.63 5.63 3.16 11.61 1.12 17.55-5.03 10.9-12.43 15.75-23.12 20.45-.86.26-1.73.52-2.62.79-3.57 1.81-4.65 3.6-6.38 7.21-.46 3.64-.38 7.21-.25 10.88.02.97.04 1.94.05 2.95.05 2.39.12 4.78.2 7.17h-14c.12-1.36.24-2.73.36-4.13l.39-5.43c.08-.9.16-1.79.25-2.72.39-6-.03-9.86-4-14.72-3.14-1.35-3.14-1.35-6.69-2.06-10.5-2.59-16.41-6.94-22.31-15.94-2.19-6.57-2.02-13.85.94-20.06L1213 326c.35-2.8.35-2.8.5-5.88.63-10.67 5.06-18.51 12.5-26.12 10.51-8.6 23.83-11.37 36.5-5.5"/><path fill="#654819" d="M2353 776c9.36-.27 9.36-.27 13.29 2.78 4.71 5.36 4.71 5.36 4.71 8.22l4 2 2 1 1-10h23c2 5 2 5 2 9 3.98-1.87 5.15-3.24 7.5-7.12 2.12-3.07 3.07-3.78 6.77-4.62a99 99 0 0 1 9.73-.26c-3.65 7.97-7.6 14.88-13 21.81-6.23 8.92-5.59 14.78-4 25.19.42 4.29.74 8.58 1.06 12.88.05.55.05.55.27 3.35.75 9.61.88 19.13.67 28.77-6.23 3.11-15.54 2.19-22.44 2.19h-2.76c-6.48-.05-12.48-.68-18.8-2.19-.09-6.94.21-13.7.88-20.61.04-.48.04-.48.26-2.94.29-3.07.57-6.13.86-9.2.29-3.08.57-6.16.86-9.24.17-1.91.35-3.82.53-5.73 1.15-12.44 1.15-12.44-.86-15.56-.67-.73-1.34-1.47-2.03-2.22-5.44-6.38-15.5-18.76-15.5-27.5"/><path fill="#644718" d="M256 676c-1.47 5.27-3.94 9.4-6.88 14l-2.61 4.12C244 698 244 698 241.68 700.81c-2.46 4.68-2.01 9.07-1.68 14.19.03.56.03.56.2 3.38.24 3.61.52 7.21.8 10.81 1.14 14.61 1.14 14.61 1 21.81-7.04 1.47-14.06 2.66-21.19 3.62-.94.14-1.89.27-2.86.41-5.03.69-9.86 1.12-14.95.97-.25-10.18.75-20.04 1.93-30.13 2.61-23.38 2.61-23.38-3.12-31.12-.81-1.15-1.63-2.31-2.47-3.5L197 688c-5-8.22-5-8.22-5-11 9.6-.27 9.6-.27 12.96 2.78 1.44 2.01 2.74 4.11 4.04 6.22l3 2v-5l2-4h19l3 8c5.68-4.42 5.68-4.42 7.5-7.75 1.5-2.25 1.5-2.25 4.38-3.06 2.7-.16 5.41-.19 8.12-.19"/><path fill="#4c9e27" d="M340 9c6.44 5.67 8.94 10.78 11 19 .56.85 1.11 1.69 1.69 2.56 2.1 3.9 1.72 7.1 1.31 11.44-3.65 8.42-9.8 12.37-18 16h-3c-2.05 4.21-2.18 7.6-2.06 12.25.05 2.25.08 4.5.06 6.75-1 1-1 1-4.44 1.12C323 78 323 78 321 77c.06-.95.12-1.91.18-2.89.36-10.21.36-10.21-2.06-14.23-3.45-2.08-6.92-3.45-10.69-4.86-5.14-2.15-7.86-5.12-10.81-9.77-1.82-4.78-2.07-8.17-1.62-13.25l2-4c.19-1.36.37-2.72.56-4.12C299.92 17.44 304.14 13.2 309 9c10.2-6.26 20.78-6.49 31 0"/><path fill="#80b829" d="M2497.813 1.5c7.27 5.7 9.49 10.6 11.19 19.5l3 4c.99 4.62.98 9.06-1.19 13.32-3.95 4.99-8.58 7.33-14.46 9.57-2.35 1.11-2.35 1.11-4.35 4.11-.2 2.92-.2 2.92-.13 6.19l.06 3.29c.02.83.04 1.66.07 2.52h-8c.02-.89.04-1.78.07-2.7.02-1.17.03-2.34.05-3.55.03-1.16.05-2.32.07-3.52-.19-3.23-.19-3.23-2.19-7.23-2.33-.36-4.67-.69-7-1-4.83-2.74-9.2-5.61-11-11-.34-5.89-.18-9.11 3-14 .15-.73.15-.73.93-4.44 1.83-7.84 5.36-11.29 12.07-15.56 5.96-1.99 11.99-1.79 17.81.5"/><path fill="#4f9a15" d="M2432.375 9.688c6.24 3.98 8.26 8.37 10.79 15.11.83 2.2.83 2.2 1.83 4.2.35 4.73.49 8.01-1.62 12.31-3.44 3.9-6.41 6.39-11.62 7.19-.46.08-.46.08-2.76.5-1.99 3.99-2.22 5.47-2.12 9.75.01.49.01.49.05 2.99.03.74.05 1.49.07 2.26h-7c-.04-.76-.09-1.52-.14-2.3-.08-.99-.15-1.99-.23-3.01-.07-.99-.14-1.97-.21-2.99-.42-2.7-.42-2.7-2.42-5.7-2.2-.95-2.2-.95-4.81-1.81-4.8-1.8-7.31-3.83-10.19-8.19-2.51-7.55-.46-13.9 2.45-20.99 2.64-5.1 5.95-7.46 10.87-10.38 6.28-1.46 11.13-1.23 17.06 1.06"/><path fill="#4f991a" d="M1361 136c4.24 4.01 6.52 9.42 8 15 0 4.68-.29 7.72-2.56 11.81-3.38 3.04-7.74 6.19-12.44 6.19l-2 13h-6c.1-2.51.2-5.01.29-7.52C1346 172 1346 172 1343 169c-.63-.21-.63-.21-3.81-1.25-5.1-2.13-7.2-4.12-10.19-8.75-.85-6.62.24-11.95 3-18 8.37-9.51 17.76-11.93 29-5"/><path fill="#765519" d="M394 693h16c1.9 7.66 2.83 15.28 3.62 23.12.14 1.29.27 2.57.4 3.89.86 8.74 1.27 17.21.98 25.99h-27c0-13.52 0-13.52.8-20.36.18-1.47.35-2.93.52-4.44.19-1.49.37-2.98.56-4.51.17-1.51.34-3.02.52-4.57.8-6.67 1.74-12.63 3.6-19.12"/><path fill="#81b82d" d="M385.688 42.125c4.89 3.96 7.61 7.84 9.31 13.88l2 4c-.07 4.15-.47 6.33-3.06 9.62-2.94 2.38-2.94 2.38-7.19 4.56-3.75 2.82-3.75 2.82-4.48 5.35-.27 2.78-.27 2.78-.27 7.47h-6c.07-2.54.13-5.08.2-7.62-.2-2.38-.2-2.38-2.2-4.38-.93-.29-1.85-.58-2.81-.88-5.3-1.87-7.68-4.11-10.19-9.12.14-6.63 2.79-13.26 6-19 5.43-5.03 11.56-6.87 18.69-3.88"/><path fill="#775619" d="M2216 819c1.96-.08 3.92-.14 5.88-.19.54-.01.54-.01 3.3-.1.93.09 1.86.19 2.82.29 2.31 3.46 2.45 5.43 2.85 9.54.13 1.3.26 2.61.39 3.95.13 1.36.25 2.73.38 4.13.14 1.35.27 2.69.41 4.07.66 6.86.97 13.39.97 20.31h-22c.32-6 .66-12 1-18 .06-1.22.12-2.44.18-3.7.43-7.15 1.72-13.45 3.82-20.3"/><path fill="#624a19" d="M2254 296c5 0 5 0 7.81 2.5.72.82 1.45 1.65 2.19 2.5v-4h9l1 4c.91-.82 1.82-1.65 2.75-2.5 3.25-2.5 3.25-2.5 7.25-2.5-1.04 3.86-2.01 6.01-4.69 9.06-2.94 5.02-2.4 7.87-1.71 13.49.6 5.15.48 10.27.4 15.45-3.35 1.68-6.93 1.09-10.62 1.06-1.56-.01-3.12-.02-4.73-.02-1.21-.02-2.41-.03-3.65-.04-.07-5.11-.1-10.07.43-15.16.97-9.64.67-15.2-5.43-22.84z"/><path fill="#755718" d="M387 309h5l1 5h2c3.01 5.06 3.72 9.86 4.19 15.62l.24 2.68c.57 6.58.74 13.09.57 19.7-3.47.87-6.03 1.13-9.56 1.12-.95.01-1.9.01-2.88.01C385 353 385 353 382 352c-.07-4.58-.01-8.88.5-13.44 1.43-13.09 1.43-13.09-2-18.5-.82-1.01-1.65-2.02-2.5-3.06v-3c4 1 4 1 8 4z"/><path fill="#80b72f" d="M1405 150c4.73 2.74 6.11 5.98 8 11l1 1c.57 4.1.2 5.69-2.12 9.19-2.88 2.81-2.88 2.81-6.13 4.19-.91.53-1.82 1.07-2.75 1.62-.88 4.19-.88 4.19-1 8h-4l.06-3.19c-1.06-3.81-1.06-3.81-3.02-5.25-1.59-.82-3.19-1.59-4.81-2.32C1388 173 1388 173 1385 169c-1.12-5.89 1.84-11.17 5-16 5.59-4.19 8.21-4.34 15-3"/><path fill="#785a1b" d="M2140 316h3c-1 4-1 4-2.55 6.41-2.25 5.56-1.76 11.03-1.64 16.97.02 1.21.03 2.42.04 3.67.04 2.98.09 5.97.15 8.95-3.47.87-6.03 1.13-9.56 1.12-.95.01-1.9.01-2.88.01C2124 353 2124 353 2121 352a573 573 0 0 1 1.94-23.75c.07-.76.07-.76.46-4.61.6-3.64.6-3.64 2.6-5.64 3-.08 6-.09 9 0v2c3-1 3-1 5-4"/><path fill="#75581b" d="M263 328h3v2l3-1q4.5-.06 9 0v2l4-3h3c-1.12 2.97-2.22 5.33-4 8 .02 3.6.14 7.1.38 10.69.05.99.11 1.97.17 2.99q.21 3.66.45 7.32c-2.29.03-4.58.05-6.88.06-1.27.01-2.55.03-3.86.04C268 357 268 357 266 356c.12-1.3.24-2.6.36-3.95l.39-5.17c.08-.86.16-1.72.25-2.6.4-5.85-.41-8.7-4-13.28z"/><path fill="#7fb92d" d="M1448 162c3.28 3.28 4.52 5.63 6 10 0 3.19 0 3.19-1 6-2.63 2.56-4.52 3.84-8 5l-1 5h-3c-.21-.74-.41-1.49-.62-2.25-1.78-3.56-4.02-4.72-7.38-6.75-2-2-2-2-2.38-4.62.51-4.54 1.97-7.52 4.38-11.38 4.73-3.57 7.63-3.23 13-1"/><path fill="#725b17" d="m1262 367-3 3c-3.76 5.02-3.34 8.77-3.19 14.75.02.98.03 1.97.04 2.98.04 2.42.09 4.85.15 7.27h-14c.11-1.39.21-2.77.32-4.2.13-1.83.25-3.66.37-5.49.07-.91.14-1.82.22-2.76.32-5.16.28-8.39-2.91-12.55v-2c.42.08.42.08 2.56.5 3.53.51 6.88.57 10.44.5v-2c3.68-.92 5.16-.96 9 0"/><path fill="#6a5520" d="M319 59h13l-1 4c-.04 2.4-.04 4.79 0 7.19.04 2.27.05 4.54 0 6.81-1 1-1 1-4.44 1.12C323 78 323 78 321 77c.01-.48.01-.48.07-2.92.02-1.27.04-2.53.05-3.83.03-1.25.05-2.51.08-3.8C321 63 321 63 319 59"/></svg>