<svg xmlns="http://www.w3.org/2000/svg" viewBox="0 0 1600 900" width="1600" height="900">
  <title>Cartoon rolling green hills with trees</title>
  <path d="M -80.0 436.3 C -50.7 434.7, 37.3 423.4, 96.0 426.6 C 154.7 429.9, 213.3 447.6, 272.0 455.7 C 330.7 463.8, 389.3 466.8, 448.0 475.1 C 506.7 483.5, 565.3 506.2, 624.0 505.8 C 682.7 505.4, 741.3 488.4, 800.0 472.9 C 858.7 457.5, 917.3 422.2, 976.0 413.0 C 1034.7 403.9, 1093.3 414.7, 1152.0 418.0 C 1210.7 421.4, 1269.3 425.3, 1328.0 433.1 C 1386.7 440.8, 1445.3 454.7, 1504.0 464.5 C 1562.7 474.3, 1650.7 487.4, 1680.0 492.0 L 1680 980 L -80 980 Z" fill="#8ccb57"></path>
  <path d="M -80.0 436.3 C -50.7 434.7, 37.3 423.4, 96.0 426.6 C 154.7 429.9, 213.3 447.6, 272.0 455.7 C 330.7 463.8, 389.3 466.8, 448.0 475.1 C 506.7 483.5, 565.3 506.2, 624.0 505.8 C 682.7 505.4, 741.3 488.4, 800.0 472.9 C 858.7 457.5, 917.3 422.2, 976.0 413.0 C 1034.7 403.9, 1093.3 414.7, 1152.0 418.0 C 1210.7 421.4, 1269.3 425.3, 1328.0 433.1 C 1386.7 440.8, 1445.3 454.7, 1504.0 464.5 C 1562.7 474.3, 1650.7 487.4, 1680.0 492.0 C 1709.3 496.6, 1709.3 496.5, 1680.0 492.0 C 1650.7 487.4, 1562.7 473.3, 1504.0 464.7 C 1445.3 456.0, 1386.7 441.6, 1328.0 440.1 C 1269.3 438.6, 1210.7 449.5, 1152.0 455.6 C 1093.3 461.7, 1034.7 465.3, 976.0 476.6 C 917.3 487.9, 858.7 515.9, 800.0 523.1 C 741.3 530.4, 682.7 528.0, 624.0 520.1 C 565.3 512.1, 506.7 484.0, 448.0 475.3 C 389.3 466.6, 330.7 473.4, 272.0 467.8 C 213.3 462.3, 154.7 447.4, 96.0 442.1 C 37.3 436.8, -50.7 437.2, -80.0 436.3 Z" fill="#a8dc70"></path>
  <rect x="90.8" y="426.5" width="8.4" height="73.5" rx="4.2" fill="#8a5a32"></rect><ellipse cx="95" cy="407.6" rx="44.1" ry="42" fill="#3f8f3a"></ellipse><ellipse cx="80.3" cy="399.2" rx="25.200000000000003" ry="23.1" fill="#56a64c"></ellipse><ellipse cx="111.8" cy="416.0" rx="21" ry="19.95" fill="#4a9a44"></ellipse>
  <rect x="813.0" y="480.0" width="4.0" height="35.0" rx="2.0" fill="#8a5a32"></rect><ellipse cx="815" cy="471.0" rx="21" ry="20" fill="#3f8f3a"></ellipse><ellipse cx="808.0" cy="467.0" rx="12" ry="11" fill="#56a64c"></ellipse><ellipse cx="823.0" cy="475.0" rx="10" ry="9.5" fill="#4a9a44"></ellipse>
  <rect x="927.8" y="466.5" width="4.4" height="38.5" rx="2.2" fill="#8a5a32"></rect><ellipse cx="930" cy="456.6" rx="23.1" ry="22" fill="#3f8f3a"></ellipse><ellipse cx="922.3" cy="452.2" rx="13.200000000000001" ry="12.100000000000001" fill="#56a64c"></ellipse><ellipse cx="938.8" cy="461.0" rx="11" ry="10.450000000000001" fill="#4a9a44"></ellipse>
  <path d="M -80.0 522.5 C -47.4 529.2, 50.4 552.0, 115.6 562.9 C 180.7 573.8, 245.9 581.8, 311.1 588.0 C 376.3 594.3, 441.5 608.9, 506.7 600.4 C 571.9 591.9, 637.0 553.2, 702.2 536.8 C 767.4 520.4, 832.6 500.9, 897.8 501.8 C 963.0 502.6, 1028.1 530.3, 1093.3 541.9 C 1158.5 553.5, 1223.7 559.7, 1288.9 571.3 C 1354.1 582.9, 1419.3 604.0, 1484.4 611.7 C 1549.6 619.3, 1647.4 616.2, 1680.0 617.1 L 1680 980 L -80 980 Z" fill="#74c247"></path>
  <path d="M -80.0 522.5 C -47.4 529.2, 50.4 552.0, 115.6 562.9 C 180.7 573.8, 245.9 581.8, 311.1 588.0 C 376.3 594.3, 441.5 608.9, 506.7 600.4 C 571.9 591.9, 637.0 553.2, 702.2 536.8 C 767.4 520.4, 832.6 500.9, 897.8 501.8 C 963.0 502.6, 1028.1 530.3, 1093.3 541.9 C 1158.5 553.5, 1223.7 559.7, 1288.9 571.3 C 1354.1 582.9, 1419.3 604.0, 1484.4 611.7 C 1549.6 619.3, 1647.4 616.2, 1680.0 617.1 C 1712.6 618.0, 1712.6 617.2, 1680.0 617.1 C 1647.4 617.0, 1549.6 623.9, 1484.4 616.4 C 1419.3 608.8, 1354.1 580.0, 1288.9 571.8 C 1223.7 563.5, 1158.5 567.1, 1093.3 566.8 C 1028.1 566.5, 963.0 562.3, 897.8 570.0 C 832.6 577.7, 767.4 601.6, 702.2 613.0 C 637.0 624.4, 571.9 642.0, 506.7 638.5 C 441.5 635.0, 376.3 604.5, 311.1 592.1 C 245.9 579.8, 180.7 576.1, 115.6 564.5 C 50.4 552.9, -47.4 529.5, -80.0 522.5 Z" fill="#93d35f"></path>
  <circle cx="266.0" cy="604.0" r="18.0" fill="#4f9e2f"></circle><circle cx="288.0" cy="594.0" r="22.0" fill="#62b03e"></circle><circle cx="312.0" cy="602.0" r="20.0" fill="#4f9e2f"></circle><circle cx="334.0" cy="606.0" r="17.0" fill="#62b03e"></circle><circle cx="300.0" cy="588.0" r="16.0" fill="#4f9e2f"></circle>
  <circle cx="439.4" cy="643.6" r="16.2" fill="#4f9e2f"></circle><circle cx="459.2" cy="634.6" r="19.8" fill="#62b03e"></circle><circle cx="480.8" cy="641.8" r="18.0" fill="#4f9e2f"></circle><circle cx="500.6" cy="645.4" r="15.3" fill="#62b03e"></circle><circle cx="470.0" cy="629.2" r="14.4" fill="#4f9e2f"></circle>
  <circle cx="851.1" cy="603.4" r="15.3" fill="#4f9e2f"></circle><circle cx="869.8" cy="594.9" r="18.7" fill="#62b03e"></circle><circle cx="890.2" cy="601.7" r="17.0" fill="#4f9e2f"></circle><circle cx="908.9" cy="605.1" r="14.4" fill="#62b03e"></circle><circle cx="880.0" cy="589.8" r="13.6" fill="#4f9e2f"></circle>
  <path d="M -80.0 667.2 C -43.3 668.3, 66.7 677.6, 140.0 673.9 C 213.3 670.2, 286.7 664.1, 360.0 645.1 C 433.3 626.1, 506.7 575.1, 580.0 560.1 C 653.3 545.1, 726.7 546.6, 800.0 555.0 C 873.3 563.4, 946.7 597.6, 1020.0 610.4 C 1093.3 623.2, 1166.7 624.4, 1240.0 631.9 C 1313.3 639.4, 1386.7 656.4, 1460.0 655.4 C 1533.3 654.3, 1643.3 630.7, 1680.0 625.8 L 1680 980 L -80 980 Z" fill="#5fb23a"></path>
  <path d="M -80.0 667.2 C -43.3 668.3, 66.7 677.6, 140.0 673.9 C 213.3 670.2, 286.7 664.1, 360.0 645.1 C 433.3 626.1, 506.7 575.1, 580.0 560.1 C 653.3 545.1, 726.7 546.6, 800.0 555.0 C 873.3 563.4, 946.7 597.6, 1020.0 610.4 C 1093.3 623.2, 1166.7 624.4, 1240.0 631.9 C 1313.3 639.4, 1386.7 656.4, 1460.0 655.4 C 1533.3 654.3, 1643.3 630.7, 1680.0 625.8 C 1716.7 620.9, 1716.7 618.4, 1680.0 625.8 C 1643.3 633.2, 1533.3 669.0, 1460.0 670.4 C 1386.7 671.9, 1313.3 642.8, 1240.0 634.4 C 1166.7 626.1, 1093.3 624.0, 1020.0 620.2 C 946.7 616.5, 873.3 607.8, 800.0 611.8 C 726.7 615.7, 653.3 629.6, 580.0 643.9 C 506.7 658.2, 433.3 690.9, 360.0 697.6 C 286.7 704.3, 213.3 689.1, 140.0 684.0 C 66.7 678.9, -43.3 670.0, -80.0 667.2 Z" fill="#7cc94f"></path>
  <path d="M -80.0 654.4 C -38.1 661.6, 87.6 683.4, 171.4 698.0 C 255.2 712.6, 339.0 727.7, 422.9 741.9 C 506.7 756.1, 590.5 771.8, 674.3 783.3 C 758.1 794.8, 841.9 819.1, 925.7 810.8 C 1009.5 802.6, 1093.3 755.8, 1177.1 733.8 C 1261.0 711.8, 1344.8 682.1, 1428.6 678.8 C 1512.4 675.5, 1638.1 708.2, 1680.0 714.1 L 1680 980 L -80 980 Z" fill="#51a532"></path>
  <path d="M -80.0 654.4 C -38.1 661.6, 87.6 683.4, 171.4 698.0 C 255.2 712.6, 339.0 727.7, 422.9 741.9 C 506.7 756.1, 590.5 771.8, 674.3 783.3 C 758.1 794.8, 841.9 819.1, 925.7 810.8 C 1009.5 802.6, 1093.3 755.8, 1177.1 733.8 C 1261.0 711.8, 1344.8 682.1, 1428.6 678.8 C 1512.4 675.5, 1638.1 708.2, 1680.0 714.1 C 1721.9 719.9, 1721.9 713.8, 1680.0 714.1 C 1638.1 714.3, 1512.4 699.9, 1428.6 715.6 C 1344.8 731.2, 1261.0 783.6, 1177.1 808.0 C 1093.3 832.3, 1009.5 864.6, 925.7 861.5 C 841.9 858.3, 758.1 807.8, 674.3 789.1 C 590.5 770.3, 506.7 760.3, 422.9 749.0 C 339.0 737.7, 255.2 737.1, 171.4 721.4 C 87.6 705.6, -38.1 665.5, -80.0 654.4 Z" fill="#6cbd43"></path>
  <path d="M -80.0 853.3 C -31.1 856.3, 115.6 866.0, 213.3 871.6 C 311.1 877.2, 408.9 896.5, 506.7 886.8 C 604.4 877.1, 702.2 839.6, 800.0 813.3 C 897.8 787.1, 995.6 736.3, 1093.3 729.1 C 1191.1 721.9, 1288.9 755.5, 1386.7 770.1 C 1484.4 784.8, 1631.1 809.1, 1680.0 816.9 L 1680 980 L -80 980 Z" fill="#468f2b"></path>
  <path d="M -80.0 853.3 C -31.1 856.3, 115.6 866.0, 213.3 871.6 C 311.1 877.2, 408.9 896.5, 506.7 886.8 C 604.4 877.1, 702.2 839.6, 800.0 813.3 C 897.8 787.1, 995.6 736.3, 1093.3 729.1 C 1191.1 721.9, 1288.9 755.5, 1386.7 770.1 C 1484.4 784.8, 1631.1 809.1, 1680.0 816.9 C 1728.9 824.7, 1728.9 820.7, 1680.0 816.9 C 1631.1 813.2, 1484.4 794.2, 1386.7 794.3 C 1288.9 794.4, 1191.1 797.3, 1093.3 817.7 C 995.6 838.2, 897.8 898.1, 800.0 917.0 C 702.2 935.8, 604.4 937.9, 506.7 930.6 C 408.9 923.4, 311.1 886.5, 213.3 873.6 C 115.6 860.7, -31.1 856.6, -80.0 853.3 Z" fill="#5bab38"></path>
  <path d="M 832.0 560.0 C 823.7 568.3, 799.7 590.0, 782.0 610.0 C 764.3 630.0, 749.3 655.0, 726.0 680.0 C 702.7 705.0, 671.0 733.3, 642.0 760.0 C 613.0 786.7, 579.0 813.3, 552.0 840.0 C 525.0 866.7, 492.0 906.7, 480.0 920.0 L 720.0 920.0 C 721.3 906.7, 721.7 866.7, 728.0 840.0 C 734.3 813.3, 747.0 786.7, 758.0 760.0 C 769.0 733.3, 784.0 705.0, 794.0 680.0 C 804.0 655.0, 809.0 630.0, 818.0 610.0 C 827.0 590.0, 843.0 568.3, 848.0 560.0 Z" fill="#b6e27c"></path>
</svg>