<svg xmlns="http://www.w3.org/2000/svg" height="2432" preserveAspectRatio="none" style="display: block;" version="1.1" viewBox="0 0 2432 2432" width="1792">
<path d="M 0 0 L 2432 0 L 2432 2305.91 L 2432 2432 L 0 2432 L 0 2305.64 L 0 0 z" fill="rgb(255,255,255)" transform="translate(0,0)"></path>
<path d="M 876.343 1600.39 L 877.507 1600.63 C 905.868 1618.15 929.719 1633.52 959.807 1647.81 C 1081.66 1705.67 1205.09 1728.05 1337.23 1696.78 C 1395.89 1682.95 1452.37 1661.13 1505.09 1631.94 C 1522.57 1622.05 1538.98 1609.78 1555.55 1600.32 C 1555.61 1625.81 1556.03 1652.27 1555.71 1677.68 C 1555.7 1688.42 1554.44 1758.35 1556.52 1764.4 C 1556.52 1791.61 1555.83 1821.62 1556.43 1848.59 C 1648.11 1866.58 1738.49 1890.65 1826.98 1920.64 C 2044.95 1995.27 2283.81 2126.66 2432 2305.91 L 2432 2432 L 0 2432 L 0 2305.64 C 158.928 2120.45 377.893 1999.97 605.946 1920.6 C 686.098 1892.71 791.345 1863.71 876.085 1848.89 C 875.671 1767.33 875.098 1681.78 876.343 1600.39 z" fill="rgb(13,21,118)" transform="translate(0,0)"></path>
<path d="M 876.343 1600.39 L 877.507 1600.63 C 905.868 1618.15 929.719 1633.52 959.807 1647.81 C 1081.66 1705.67 1205.09 1728.05 1337.23 1696.78 C 1395.89 1682.95 1452.37 1661.13 1505.09 1631.94 C 1522.57 1622.05 1538.98 1609.78 1555.55 1600.32 C 1555.61 1625.81 1556.03 1652.27 1555.71 1677.68 C 1555.7 1688.42 1554.44 1758.35 1556.52 1764.4 C 1556.52 1791.61 1555.83 1821.62 1556.43 1848.59 C 1556.47 1862.51 1557.02 1878.38 1556.25 1892.04 C 1547.83 2043.04 1354.11 2109.4 1227.39 2110.26 C 1101.78 2111.12 950.951 2072.17 890.499 1953.02 C 874.53 1921.54 876.444 1882.91 876.085 1848.89 C 875.671 1767.33 875.098 1681.78 876.343 1600.39 z" fill="rgb(214,137,114)" transform="translate(0,0)"></path>
<path d="M 877.507 1600.63 C 905.868 1618.15 929.719 1633.52 959.807 1647.81 C 1081.66 1705.67 1205.09 1728.05 1337.23 1696.78 C 1395.89 1682.95 1452.37 1661.13 1505.09 1631.94 C 1522.57 1622.05 1538.98 1609.78 1555.55 1600.32 C 1555.61 1625.81 1556.03 1652.27 1555.71 1677.68 C 1539.05 1687.33 1518.82 1702.63 1500.47 1713.53 C 1440.48 1749.12 1374.7 1773.88 1306.14 1786.68 C 1150.58 1814.35 1004.52 1768.45 877.183 1679.34 C 877.029 1653.11 877.137 1626.87 877.507 1600.63 z" fill="rgb(173,101,85)" transform="translate(0,0)"></path>
<path d="M 907.984 524.789 C 938.703 544.383 973.885 558.282 1008.6 569.07 C 1126.68 604.801 1251.98 609.57 1372.44 582.917 C 1427.14 570.773 1476.34 554.037 1524.31 524.761 C 1602.57 550.379 1669.47 615.886 1673.75 701.129 C 1675.03 726.439 1670.56 752.94 1676.78 777.575 C 1681.93 797.306 1700.75 807.206 1714.9 819.908 C 1747.93 849.783 1768.97 890.647 1774.09 934.885 C 1775.71 949.93 1775.36 977.144 1775.11 993.276 C 1774.81 1011.74 1775.93 1034.65 1775.16 1052.54 C 1774.47 1054.6 1772.2 1066.61 1771.95 1068.86 C 1777.77 1070.09 1774.63 1092.35 1775.22 1099.49 C 1775.62 1135.34 1775.8 1171.2 1775.79 1207.05 C 1775.83 1216.76 1774.95 1242.36 1776.18 1250.44 C 1780.99 1252 1782.7 1252.05 1787.82 1252.58 C 1783.78 1252.49 1779.27 1251.86 1775.97 1253.82 C 1773.73 1263.79 1773.8 1274.18 1772.2 1284.33 C 1751.04 1418.66 1663.72 1522.92 1556.6 1599.77 L 1556.81 1712.15 C 1556.82 1722.6 1557.58 1755 1556.52 1764.4 C 1554.44 1758.35 1555.7 1688.42 1555.71 1677.68 C 1556.03 1652.27 1555.61 1625.81 1555.55 1600.32 C 1538.98 1609.78 1522.57 1622.05 1505.09 1631.94 C 1452.37 1661.13 1395.89 1682.95 1337.23 1696.78 C 1205.09 1728.05 1081.66 1705.67 959.807 1647.81 C 929.719 1633.52 905.868 1618.15 877.507 1600.63 L 876.343 1600.39 C 872.882 1595.34 841.791 1573.76 833.794 1567.22 C 733.044 1484.87 670.679 1381.73 656.826 1251.75 C 656.755 1233.02 656.961 1214.44 656.722 1195.67 L 656.459 1061.71 L 654.824 1052.51 C 660.272 1042.82 654.858 956.585 657.942 935.712 C 662.975 887.744 689.041 842.354 726.652 812.801 C 743.632 799.459 756.144 789.732 758.327 766.047 C 760.175 745.985 758.333 723.825 759.386 703.404 C 762.248 647.907 789.902 600.246 832.721 565.654 C 855.166 547.645 880.657 533.805 907.984 524.789 z" fill="rgb(214,137,114)" transform="translate(0,0)"></path>
<path d="M 656.459 1061.71 L 659.128 1063.42 C 699.807 1202.51 773.349 1331.95 893.312 1417.45 C 877.204 1337.93 959.229 1286.17 1026.67 1273.41 C 1088.25 1261.76 1157.68 1268.92 1217 1288.61 C 1296.84 1263.95 1391.56 1255.14 1468.64 1295.13 C 1517.81 1320.64 1547.89 1359.95 1540.5 1417.12 C 1562.45 1401.62 1584.6 1380.94 1603.97 1362.27 C 1692.24 1277.15 1734.36 1184 1771.95 1068.86 C 1777.77 1070.09 1774.63 1092.35 1775.22 1099.49 C 1775.62 1135.34 1775.8 1171.2 1775.79 1207.05 C 1775.83 1216.76 1774.95 1242.36 1776.18 1250.44 C 1780.99 1252 1782.7 1252.05 1787.82 1252.58 C 1783.78 1252.49 1779.27 1251.86 1775.97 1253.82 C 1773.73 1263.79 1773.8 1274.18 1772.2 1284.33 C 1751.04 1418.66 1663.72 1522.92 1556.6 1599.77 L 1556.81 1712.15 C 1556.82 1722.6 1557.58 1755 1556.52 1764.4 C 1554.44 1758.35 1555.7 1688.42 1555.71 1677.68 C 1556.03 1652.27 1555.61 1625.81 1555.55 1600.32 C 1538.98 1609.78 1522.57 1622.05 1505.09 1631.94 C 1452.37 1661.13 1395.89 1682.95 1337.23 1696.78 C 1205.09 1728.05 1081.66 1705.67 959.807 1647.81 C 929.719 1633.52 905.868 1618.15 877.507 1600.63 L 876.343 1600.39 C 872.882 1595.34 841.791 1573.76 833.794 1567.22 C 733.044 1484.87 670.679 1381.73 656.826 1251.75 C 656.755 1233.02 656.961 1214.44 656.722 1195.67 L 656.459 1061.71 z" fill="rgb(238,207,126)" transform="translate(0,0)"></path>
<path d="M 1215.6 1306.34 C 1218.22 1306.05 1236.03 1310.65 1240.44 1311.59 C 1254.93 1314.61 1269.53 1317.04 1284.21 1318.88 C 1298.92 1320.67 1312.29 1321.71 1327.67 1322.66 C 1367.66 1325.12 1431.92 1318.81 1463.76 1346.33 C 1479.56 1359.98 1486.14 1388 1486.91 1407.74 C 1487.99 1435.58 1476.59 1464.68 1456.6 1484.35 C 1396.54 1543.43 1303.17 1564.76 1222.23 1567.37 C 1154.91 1568.94 1092.55 1554.54 1030.73 1524.01 C 965.764 1493.65 923.565 1430.91 958.39 1360.53 C 981.292 1314.25 1072.26 1325.85 1115.66 1321.85 C 1150.52 1318.64 1181.82 1316.48 1215.6 1306.34 z" fill="rgb(214,137,114)" transform="translate(0,0)"></path>
<path d="M 980.7 1343.91 C 987.499 1344.91 1008.66 1354.23 1016.7 1356.95 C 1164.22 1406.83 1313.08 1399.95 1457.7 1341.91 C 1450.41 1347.23 1443.02 1352.42 1435.54 1357.49 C 1384.07 1392.87 1314.05 1411.29 1252.21 1417.86 C 1164.44 1427.19 1049.95 1400.21 980.7 1343.91 z" fill="rgb(173,101,85)" transform="translate(0,0)"></path>
<path d="M 1099.25 1430.36 L 1104.21 1432.27 C 1180.14 1461.22 1268.79 1462.66 1343.53 1429.21 C 1338.03 1436.63 1329.74 1445.65 1322.95 1451.93 C 1258.4 1518 1150.43 1505.62 1099.25 1430.36 z" fill="rgb(173,101,85)" transform="translate(0,0)"></path>
<path d="M 657.942 935.712 C 659.352 963.505 657.729 993.929 658.179 1021.89 C 658.385 1034.65 657.303 1051.01 659.128 1063.42 L 656.459 1061.71 L 654.824 1052.51 C 660.272 1042.82 654.858 956.585 657.942 935.712 z" fill="rgb(224,172,119)" transform="translate(0,0)"></path>
<path d="M 1080.58 882.76 C 1090.93 885.966 1101.86 895.674 1110 902.345 C 1186.25 964.833 1195 1053.21 1148.41 1136.93 C 1142.61 1147.35 1131.34 1163.13 1128.45 1174.27 C 1125.95 1183.66 1127.04 1193.65 1131.52 1202.28 C 1140.57 1219.62 1163.86 1232.34 1182.18 1237.6 C 1213.4 1246.57 1239.76 1243.36 1270.72 1236.14 C 1285.23 1232.14 1299.35 1222.13 1308.29 1221.86 C 1330.68 1206.64 1342.41 1194.81 1327.04 1168.73 C 1356.06 1184.57 1374.95 1208.02 1340.68 1233.83 C 1298.4 1265.68 1236.84 1275.28 1185.13 1268.88 C 1148.44 1264.35 1063.81 1244.6 1077.51 1191.12 C 1081.04 1177.15 1095.64 1163.41 1103.81 1151.61 C 1122.76 1122.39 1136 1087.48 1142.36 1053.26 C 1150.92 999.505 1127.92 945.908 1097.25 903.126 L 1099.2 903.365 L 1099.95 902.078 C 1095.74 895.782 1086.48 887.988 1080.58 882.76 z" fill="rgb(173,101,85)" transform="translate(0,0)"></path>
<path d="M 1308.29 1221.86 C 1311.63 1222.78 1317.7 1223.05 1319.74 1225.96 C 1320.24 1226.67 1320.43 1227.56 1320.28 1228.42 C 1317.9 1242.06 1271.34 1256.16 1259.27 1259.59 C 1243.81 1263.97 1268.01 1238.38 1270.72 1236.14 C 1285.23 1232.14 1299.35 1222.13 1308.29 1221.86 z" fill="rgb(77,34,25)" transform="translate(0,0)"></path>
<path d="M 838.81 998.521 C 853.745 968.878 873.332 951.539 905.385 940.988 C 941.378 929.506 980.443 932.636 1014.15 949.703 C 1036.31 961.099 1053.79 977.585 1065.23 999.747 C 1051.9 992.15 997.772 964.477 984.946 970.162 C 1021.72 1016.3 945.174 1047.38 911.075 1020.61 C 890.905 1004.78 888.425 990.664 903.367 970.301 C 886.862 970.122 852.69 990.061 838.81 998.521 z" fill="rgb(77,34,25)" transform="translate(0,0)"></path>
<path d="M 838.81 998.521 C 853.745 968.878 873.332 951.539 905.385 940.988 C 941.378 929.506 980.443 932.636 1014.15 949.703 C 1036.31 961.099 1053.79 977.585 1065.23 999.747 C 1051.9 992.15 997.772 964.477 984.946 970.162 C 982.37 968.409 980.608 966.171 977.825 964.403 C 956.047 950.559 923.337 951.653 904.239 969.791 C 903.948 969.961 903.658 970.131 903.367 970.301 C 886.862 970.122 852.69 990.061 838.81 998.521 z" fill="rgb(173,101,85)" transform="translate(0,0)"></path>
<path d="M 952.027 965.499 C 968.058 964.338 979.447 975.096 964.85 984.078 L 962.982 985.275 C 961 985.406 959.108 985.552 957.112 985.507 C 953.103 985.453 949.324 983.628 946.789 980.522 C 941.306 973.82 946.479 969.254 952.027 965.499 z" fill="rgb(255,255,255)" transform="translate(0,0)"></path>
<path d="M 1375.37 1001.35 C 1406.12 933.005 1495.89 918.04 1557.2 954.051 C 1576.41 965.336 1586.93 978.609 1597.24 997.979 C 1585.55 990.285 1539.64 963.331 1527.59 968.172 C 1550.23 993.416 1537.25 1017.26 1507.71 1027.72 C 1474.23 1039.58 1418.93 1014.39 1445.29 972.781 C 1432.78 969.198 1388.2 993.9 1375.37 1001.35 z" fill="rgb(77,34,25)" transform="translate(0,0)"></path>
<path d="M 1375.37 1001.35 C 1406.12 933.005 1495.89 918.04 1557.2 954.051 C 1576.41 965.336 1586.93 978.609 1597.24 997.979 C 1585.55 990.285 1539.64 963.331 1527.59 968.172 C 1525.98 967.267 1525.56 966.856 1524.01 965.782 C 1503.84 951.834 1476.1 951.537 1455.2 964.102 C 1451 966.624 1448.43 970.784 1445.29 972.781 C 1432.78 969.198 1388.2 993.9 1375.37 1001.35 z" fill="rgb(173,101,85)" transform="translate(0,0)"></path>
<path d="M 1498.95 964.352 C 1516.57 965.764 1519.68 979.548 1505.43 984.813 L 1503.39 985.664 C 1484.88 984.597 1482.13 969.618 1496.72 965.092 L 1498.95 964.352 z" fill="rgb(255,255,255)" transform="translate(0,0)"></path>
<path d="M 778.687 923.729 C 779.848 922.047 781.023 920.375 782.213 918.713 C 841.238 836.123 963.336 814.512 1050.59 862.9 C 1061.15 868.757 1070.8 875.729 1080.58 882.76 C 1086.48 887.988 1095.74 895.782 1099.95 902.078 L 1099.2 903.365 L 1097.25 903.126 C 1087.46 897.853 1075.82 893.474 1065.22 889.397 C 986.072 858.947 895.813 853.518 819.739 895.763 C 804.956 903.973 792.109 913.666 778.687 923.729 z" fill="rgb(54,42,45)" transform="translate(0,0)"></path>
<path d="M 1475.73 837.684 C 1545.47 832.195 1616.82 866.948 1656.06 924.584 C 1618.13 893.534 1582.89 876.582 1534.26 868.368 C 1463.37 856.482 1398.64 875.914 1334.86 904.027 C 1336.19 902.328 1337.57 900.66 1338.98 899.024 C 1373.67 858.943 1424.13 841.344 1475.73 837.684 z" fill="rgb(54,42,45)" transform="translate(0,0)"></path>
<path d="M 775.2 447.771 C 790.413 403.483 840.014 370.026 881.471 351.594 C 1069.93 267.809 1300.6 264.371 1495.13 328.585 C 1552.97 347.681 1637.9 387.618 1656.96 447.528 C 1827.98 500.711 1912.57 657.89 1858.18 829.617 C 1846.06 867.895 1820.55 915.958 1813.17 954.815 C 1804.02 972.041 1794.56 1007.98 1786.64 1028.3 C 1784.23 1037.08 1780.68 1045.57 1777.34 1054.04 C 1775.82 1053.58 1775.81 1053.77 1775.16 1052.54 C 1775.93 1034.65 1774.81 1011.74 1775.11 993.276 C 1775.36 977.144 1775.71 949.93 1774.09 934.885 C 1768.97 890.647 1747.93 849.783 1714.9 819.908 C 1700.75 807.206 1681.93 797.306 1676.78 777.575 C 1670.56 752.94 1675.03 726.439 1673.75 701.129 C 1669.47 615.886 1602.57 550.379 1524.31 524.761 C 1476.34 554.037 1427.14 570.773 1372.44 582.917 C 1251.98 609.57 1126.68 604.801 1008.6 569.07 C 973.885 558.282 938.703 544.383 907.984 524.789 C 880.657 533.805 855.166 547.645 832.721 565.654 C 789.902 600.246 762.248 647.907 759.386 703.404 C 758.333 723.825 760.175 745.985 758.327 766.047 C 756.144 789.732 743.632 799.459 726.652 812.801 C 689.041 842.354 662.975 887.744 657.942 935.712 C 654.858 956.585 660.272 1042.82 654.824 1052.51 C 651.95 1044.5 649.132 1036.48 646.369 1028.44 C 641.082 1014.44 625.765 963.996 620.44 955.412 L 613.902 954.281 L 618.664 953.621 C 622.437 947.564 585.759 860.116 580.532 845.58 C 548.803 757.344 548.992 663.756 598.115 581.731 C 637.461 515.735 700.988 467.678 775.2 447.771 z" fill="rgb(238,207,126)" transform="translate(0,0)"></path>
<path d="M 1813.17 954.815 C 1860.5 951.45 1912.3 956.647 1947.72 991.442 C 2062.31 1104.05 1920.36 1260.02 1787.82 1252.58 C 1782.7 1252.05 1780.99 1252 1776.18 1250.44 C 1774.95 1242.36 1775.83 1216.76 1775.79 1207.05 C 1775.8 1171.2 1775.62 1135.34 1775.22 1099.49 C 1774.63 1092.35 1777.77 1070.09 1771.95 1068.86 C 1772.2 1066.61 1774.47 1054.6 1775.16 1052.54 C 1775.81 1053.77 1775.82 1053.58 1777.34 1054.04 C 1780.68 1045.57 1784.23 1037.08 1786.64 1028.3 C 1794.56 1007.98 1804.02 972.041 1813.17 954.815 z" fill="rgb(214,137,114)" transform="translate(0,0)"></path>
<path d="M 1786.64 1028.3 C 1809.64 1019.53 1827.99 1011.39 1853.07 1009.8 C 1899.48 1006.86 1944.99 1040.43 1947.64 1088.5 C 1947.96 1094.19 1947.43 1100.74 1947.15 1106.5 C 1935.46 1075.89 1924.89 1058.48 1893.43 1044.04 C 1861.43 1029.35 1830.27 1032.48 1798.18 1045.14 C 1797.27 1045.5 1796.37 1045.87 1795.48 1046.25 C 1799.65 1047.44 1800.38 1047.49 1804.75 1047.81 C 1853.82 1040.34 1910.21 1083.98 1872.29 1133.46 C 1861.13 1148.01 1844.46 1157.29 1828.98 1166.46 C 1811.83 1175.91 1794.01 1187.94 1776.53 1196.63 C 1776.54 1164.58 1777 1131.12 1776.26 1099.19 L 1775.22 1099.49 C 1774.63 1092.35 1777.77 1070.09 1771.95 1068.86 C 1772.2 1066.61 1774.47 1054.6 1775.16 1052.54 C 1775.81 1053.77 1775.82 1053.58 1777.34 1054.04 C 1780.68 1045.57 1784.23 1037.08 1786.64 1028.3 z" fill="rgb(173,101,85)" transform="translate(0,0)"></path>
<path d="M 1775.16 1052.54 C 1775.81 1053.77 1775.82 1053.58 1777.34 1054.04 C 1775.9 1058.91 1776.2 1092.83 1776.26 1099.19 L 1775.22 1099.49 C 1774.63 1092.35 1777.77 1070.09 1771.95 1068.86 C 1772.2 1066.61 1774.47 1054.6 1775.16 1052.54 z" fill="rgb(224,172,119)" transform="translate(0,0)"></path>
<path d="M 1804.75 1047.81 C 1802.82 1048.17 1785.02 1051.54 1784.56 1051.43 L 1784.66 1051.08 C 1786.64 1049.18 1792.71 1046.88 1795.48 1046.25 C 1799.65 1047.44 1800.38 1047.49 1804.75 1047.81 z" fill="rgb(195,119,97)" transform="translate(0,0)"></path>
<path d="M 656.826 1251.75 C 645.364 1253.1 633.799 1253.35 622.29 1252.5 C 534.139 1245.42 437.765 1166.78 444.238 1071.41 C 446.699 1039.35 462.902 1009.85 487.619 989.543 C 524.843 958.953 567.052 950.213 613.902 954.281 L 620.44 955.412 C 625.765 963.996 641.082 1014.44 646.369 1028.44 C 649.132 1036.48 651.95 1044.5 654.824 1052.51 L 656.459 1061.71 L 656.722 1195.67 C 656.961 1214.44 656.755 1233.02 656.826 1251.75 z" fill="rgb(214,137,114)" transform="translate(0,0)"></path>
<path d="M 489.274 1108.08 C 481.27 1055.53 514.699 1017.45 567.017 1010.76 C 593.919 1007.32 621.855 1017.97 646.369 1028.44 C 649.132 1036.48 651.95 1044.5 654.824 1052.51 L 656.459 1061.71 L 656.722 1195.67 C 644.699 1191.58 595.249 1159.43 581.272 1151.54 C 575.341 1147.48 569.884 1142.52 565.06 1137.33 C 544.143 1114.85 544.367 1083.72 569.508 1063.97 C 592.801 1045.66 617.176 1046.32 645.389 1049.33 C 605.361 1030.29 563.348 1027.24 525.524 1053.7 C 504.997 1068.06 495.175 1083.84 489.274 1108.08 z" fill="rgb(173,101,85)" transform="translate(0,0)"></path>
<metadata><recraft-signature>{"signed_by": "recraft", "signature_b64": "o1oRrmO+hdabaynaYitOanqwD6ZpGFLFNg91o61SuXQlg1O9FyClFHp+UqWuMfpHYLXf2h3PvZetc/5hJ/5qBg==", "signing_algo": "Ed25519", "generation_timestamp": 1782383340, "identifier": "761e7edc-ba21-4493-be18-0ba91cc7621f"}</recraft-signature></metadata></svg>